<?xml version="1.0" encoding="UTF-8" standalone="no"?>
<!-- Created with Inkscape (http://www.inkscape.org/) -->

<svg
   xmlns:dc="http://purl.org/dc/elements/1.1/"
   xmlns:cc="http://creativecommons.org/ns#"
   xmlns:rdf="http://www.w3.org/1999/02/22-rdf-syntax-ns#"
   xmlns:svg="http://www.w3.org/2000/svg"
   xmlns="http://www.w3.org/2000/svg"
   xmlns:sodipodi="http://sodipodi.sourceforge.net/DTD/sodipodi-0.dtd"
   xmlns:inkscape="http://www.inkscape.org/namespaces/inkscape"
   width="1052.3622"
   height="1052.3622"
   id="svg2"
   version="1.1"
   inkscape:version="0.48+devel r9772"
   sodipodi:docname="New document 1">
  <defs
     id="defs4" />
  <sodipodi:namedview
     id="base"
     pagecolor="#ffffff"
     bordercolor="#666666"
     borderopacity="1.0"
     inkscape:pageopacity="0.0"
     inkscape:pageshadow="2"
     inkscape:zoom="0.66136926"
     inkscape:cx="336.42326"
     inkscape:cy="526.18109"
     inkscape:document-units="px"
     inkscape:current-layer="layer1"
     showgrid="false"
     units="mm"
     inkscape:window-width="1440"
     inkscape:window-height="851"
     inkscape:window-x="0"
     inkscape:window-y="1"
     inkscape:window-maximized="1" />
  <metadata
     id="metadata7">
    <rdf:RDF>
      <cc:Work
         rdf:about="">
        <dc:format>image/svg+xml</dc:format>
        <dc:type
           rdf:resource="http://purl.org/dc/dcmitype/StillImage" />
        <dc:title></dc:title>
      </cc:Work>
    </rdf:RDF>
  </metadata>
  <g
     inkscape:label="Layer 1"
     inkscape:groupmode="layer"
     id="layer1"
     transform="translate(0,-6.1562498e-6)">
    <g
       id="g3145"
       transform="matrix(1.7917327,0,0,1.7917327,-360.00934,-404.79625)">
      <path
         style="fill:#f2c5aa"
         d="m 458.27041,805.47075 c 0.6875,-0.27741 1.8125,-0.27741 2.5,0 0.6875,0.27741 0.125,0.50439 -1.25,0.50439 -1.375,0 -1.9375,-0.22698 -1.25,-0.50439 z m 52,0 c 0.6875,-0.27741 1.8125,-0.27741 2.5,0 0.6875,0.27741 0.125,0.50439 -1.25,0.50439 -1.375,0 -1.9375,-0.22698 -1.25,-0.50439 z m -62.9375,-1.02083 c 0.72187,-0.28887 1.58438,-0.25335 1.91667,0.0789 0.33229,0.33229 -0.25834,0.56864 -1.3125,0.52522 -1.16495,-0.048 -1.4019,-0.28494 -0.60417,-0.60416 z m 76,0 c 0.72187,-0.28887 1.58438,-0.25335 1.91667,0.0789 0.33229,0.33229 -0.25834,0.56864 -1.3125,0.52522 -1.16495,-0.048 -1.4019,-0.28494 -0.60417,-0.60416 z M 449.39285,670.38303 c -1.26951,-1.61876 -1.22245,-1.63998 0.62756,-0.28297 1.1,0.80687 2.1875,1.59437 2.41667,1.75 0.22916,0.15563 -0.0532,0.28297 -0.62756,0.28297 -0.57432,0 -1.66182,-0.7875 -2.41667,-1.75 z m 5.21089,1.46703 c 0.22917,-0.15563 1.31667,-0.94313 2.41667,-1.75 1.85001,-1.35701 1.89707,-1.33579 0.62756,0.28297 -0.75485,0.9625 -1.84235,1.75 -2.41667,1.75 -0.57432,0 -0.85672,-0.12734 -0.62756,-0.28297 z m 57.78911,-1.46703 c -1.26951,-1.61876 -1.22245,-1.63998 0.62756,-0.28297 1.1,0.80687 2.1875,1.59437 2.41667,1.75 0.22916,0.15563 -0.0532,0.28297 -0.62756,0.28297 -0.57432,0 -1.66182,-0.7875 -2.41667,-1.75 z m 37.6276,1.02639 c 1.1,-0.27038 2.675,-1.00568 3.5,-1.634 1.3045,-0.99355 1.3212,-0.91438 0.1275,0.60761 -0.7548,0.9625 -2.3298,1.6978 -3.5,1.634 -2.0208,-0.11018 -2.0272,-0.14067 -0.1275,-0.60761 z m -71.6276,-2.02639 c -1.24387,-1.58606 -1.2085,-1.62143 0.37756,-0.37756 1.66575,1.30637 2.19548,2.12756 1.37244,2.12756 -0.20765,0 -0.99515,-0.7875 -1.75,-1.75 z m 11.62756,-0.25 c 0.99549,-1.1 2.03498,-2 2.30998,-2 0.275,0 -0.31449,0.9 -1.30998,2 -0.99549,1.1 -2.03498,2 -2.30998,2 -0.275,0 0.31449,-0.9 1.30998,-2 z m 85.93714,-2.25 -2.9371,-3.25 3.25,2.93709 c 3.0294,2.73778 3.7096,3.56291 2.9371,3.56291 -0.1721,0 -1.6346,-1.4625 -3.25,-3.25 z m -160.84786,0.39446 c -0.29082,-0.47055 0.58263,-0.64309 1.94098,-0.38343 1.35836,0.25967 2.46974,0.64466 2.46974,0.85555 0,0.77375 -3.89864,0.35644 -4.41072,-0.47212 z m 169.60566,-2.64446 c 0.02,-1.65 0.2445,-2.20394 0.4981,-1.23097 0.2535,0.97297 0.2368,2.32297 -0.037,3 -0.274,0.67703 -0.4814,-0.11903 -0.461,-1.76903 z M 459.59936,663.5497 c 0.048,-1.16495 0.28494,-1.4019 0.60416,-0.60417 0.28887,0.72187 0.25335,1.58438 -0.0789,1.91667 -0.33229,0.33229 -0.56864,-0.25834 -0.52522,-1.3125 z m 63,-3 c 0.048,-1.16495 0.28494,-1.4019 0.60416,-0.60417 0.28887,0.72187 0.25335,1.58438 -0.0789,1.91667 -0.33229,0.33229 -0.56864,-0.25834 -0.52522,-1.3125 z m -28,-3 c 0.048,-1.16495 0.28494,-1.4019 0.60416,-0.60417 0.28887,0.72187 0.25335,1.58438 -0.0789,1.91667 -0.33229,0.33229 -0.56864,-0.25834 -0.52522,-1.3125 z m -33.82677,-2.91667 c 0.0111,-2.2 0.21589,-2.98225 0.45508,-1.73834 0.23919,1.24391 0.23011,3.04391 -0.0202,4 -0.25029,0.95609 -0.446,-0.0617 -0.4349,-2.26166 z m 124.94276,1 c 0.02,-1.65 0.2445,-2.20394 0.4981,-1.23097 0.2535,0.97297 0.2368,2.32297 -0.037,3 -0.274,0.67703 -0.4814,-0.11903 -0.461,-1.76903 z m 18.227,-3.79725 -5.9219,-6.20275 6.1325,5.85244 c 4.1864,3.99522 6.3034,5.42326 6.671,4.5 0.3443,-0.86453 0.5671,-0.92278 0.6175,-0.16146 0.1947,2.93664 -2.0042,1.76721 -7.4991,-3.98823 z m -80.34299,2.71392 c 0.048,-1.16495 0.28494,-1.4019 0.60416,-0.60417 0.28887,0.72187 0.25335,1.58438 -0.0789,1.91667 -0.33229,0.33229 -0.56864,-0.25834 -0.52522,-1.3125 z m -160.57895,-1.41667 c 0.99549,-1.1 2.03498,-2 2.30998,-2 0.275,0 -0.31449,0.9 -1.30998,2 -0.99549,1.1 -2.03498,2 -2.30998,2 -0.275,0 0.31449,-0.9 1.30998,-2 z m 45.57895,-0.58333 c 0.048,-1.16495 0.28494,-1.4019 0.60416,-0.60417 0.28887,0.72187 0.25335,1.58438 -0.0789,1.91667 -0.3323,0.33229 -0.56864,-0.25834 -0.52522,-1.3125 z m 218.88689,-4.16667 -5.4658,-5.75 5.75,5.46584 c 5.3419,5.07794 6.2081,6.03416 5.4658,6.03416 -0.1563,0 -2.7438,-2.5875 -5.75,-5.75 z m -131.80795,2.75 c 0,-1.375 0.22698,-1.9375 0.50439,-1.25 0.27741,0.6875 0.27741,1.8125 0,2.5 -0.27741,0.6875 -0.50439,0.125 -0.50439,-1.25 z m -68.07894,-0.58333 c 0.048,-1.16495 0.28494,-1.4019 0.60416,-0.60417 0.28887,0.72187 0.25335,1.58438 -0.0789,1.91667 -0.3323,0.33229 -0.56864,-0.25834 -0.52522,-1.3125 z m -58.57895,-2.41667 c 0.99549,-1.1 2.03498,-2 2.30998,-2 0.275,0 -0.31449,0.9 -1.30998,2 -0.99549,1.1 -2.03498,2 -2.30998,2 -0.275,0 0.31449,-0.9 1.30998,-2 z m 189.57894,0.41667 c 0.048,-1.16495 0.285,-1.4019 0.6042,-0.60417 0.2888,0.72187 0.2533,1.58438 -0.079,1.91667 -0.3323,0.33229 -0.5687,-0.25834 -0.5252,-1.3125 z m 28.079,-2.41667 c 0,-1.375 0.2269,-1.9375 0.5043,-1.25 0.2775,0.6875 0.2775,1.8125 0,2.5 -0.2774,0.6875 -0.5043,0.125 -0.5043,-1.25 z m -179.00005,-1 c 0,-1.375 0.22698,-1.9375 0.50439,-1.25 0.27741,0.6875 0.27741,1.8125 0,2.5 -0.27741,0.6875 -0.50439,0.125 -0.50439,-1.25 z m 20.92106,0.41667 c 0.048,-1.16495 0.28494,-1.4019 0.60416,-0.60417 0.28887,0.72187 0.25335,1.58438 -0.0789,1.91667 -0.3323,0.33229 -0.56864,-0.25834 -0.52522,-1.3125 z m 68,-1 c 0.048,-1.16495 0.28494,-1.4019 0.60416,-0.60417 0.28887,0.72187 0.25335,1.58438 -0.0789,1.91667 -0.33229,0.33229 -0.56864,-0.25834 -0.52522,-1.3125 z m -160.62007,-0.4832 c -0.36253,-0.58659 -0.44468,-1.281 -0.18255,-1.54313 0.26212,-0.26213 0.74306,0.21781 1.06875,1.06653 0.67618,1.76211 0.0999,2.07206 -0.8862,0.4766 z m 258.41356,-0.68347 c -1.2439,-1.58606 -1.2085,-1.62143 0.3776,-0.37756 0.9625,0.75485 1.75,1.54235 1.75,1.75 0,0.82304 -0.8212,0.29331 -2.1276,-1.37244 z m 55.5326,-0.5 -1.905,-2.25 2.25,1.90499 c 2.1144,1.79022 2.7052,2.59501 1.905,2.59501 -0.1898,0 -1.2023,-1.0125 -2.25,-2.25 z m -90.405,0.19098 c 0,-0.58246 0.45,-0.7809 1,-0.44098 0.55,0.33992 1,0.81648 1,1.05902 0,0.24254 -0.45,0.44098 -1,0.44098 -0.55,0 -1,-0.47656 -1,-1.05902 z m 97.0789,-0.52431 c 0.048,-1.16495 0.285,-1.4019 0.6042,-0.60417 0.2888,0.72187 0.2533,1.58438 -0.079,1.91667 -0.3323,0.33229 -0.5687,-0.25834 -0.5252,-1.3125 z m -158.07894,-0.41667 c -0.90129,-0.58246 -1.02463,-0.97549 -0.30902,-0.98469 0.65504,-0.008 1.4691,0.43469 1.80902,0.98469 0.7673,1.24153 0.42112,1.24153 -1.5,0 z m 22,-2.5 c 1.29175,-1.375 2.57363,-2.5 2.84863,-2.5 0.275,0 -0.55688,1.125 -1.84863,2.5 -1.29175,1.375 -2.57363,2.5 -2.84863,2.5 -0.275,0 0.55688,-1.125 1.84863,-2.5 z m -83,0 c -1.51578,-1.82641 -4.11266,-1.93458 -6.00177,-0.25 -1.19253,1.06341 -1.20411,0.98877 -0.0776,-0.5 1.75123,-2.3143 4.34796,-2.21563 6.57933,0.25 0.99549,1.1 1.57033,2 1.27743,2 -0.2929,0 -1.09274,-0.675 -1.77743,-1.5 z m 42.8125,0.81689 c 0.72187,-0.28887 1.58438,-0.25335 1.91667,0.0789 0.33229,0.33229 -0.25834,0.56864 -1.3125,0.52522 -1.16495,-0.048 -1.4019,-0.28494 -0.60417,-0.60416 z m -62.0625,-0.97917 c 0.6875,-0.27741 1.8125,-0.27741 2.5,0 0.6875,0.27741 0.125,0.50439 -1.25,0.50439 -1.375,0 -1.9375,-0.22698 -1.25,-0.50439 z m 30,0 c 0.6875,-0.27741 1.8125,-0.27741 2.5,0 0.6875,0.27741 0.125,0.50439 -1.25,0.50439 -1.375,0 -1.9375,-0.22698 -1.25,-0.50439 z m 107.25004,0.28472 c 0,-0.20765 0.7875,-0.99515 1.75,-1.75 1.586,-1.24387 1.6214,-1.2085 0.3775,0.37756 -1.3063,1.66575 -2.1275,2.19548 -2.1275,1.37244 z M 406.59936,637.5497 c 0.048,-1.16495 0.28494,-1.4019 0.60416,-0.60417 0.28887,0.72187 0.25335,1.58438 -0.0789,1.91667 -0.3323,0.33229 -0.56864,-0.25834 -0.52522,-1.3125 z m 7.32604,-0.66667 -1.90499,-2.25 2.25,1.90499 c 2.11444,1.79022 2.70524,2.59501 1.90499,2.59501 -0.18976,0 -1.20226,-1.0125 -2.25,-2.25 z m 227.67395,1 c -0.043,-0.9625 0.316,-1.75 0.7986,-1.75 0.4827,0 1.4952,0.7875 2.25,1.75 1.2263,1.56363 1.1965,1.61243 -0.2803,0.45826 -1.3507,-1.05565 -1.7475,-1.05565 -2.171,0 -0.3296,0.82147 -0.5471,0.65463 -0.5973,-0.45826 z m 16,-0.33333 c 0.048,-1.16495 0.285,-1.4019 0.6042,-0.60417 0.2888,0.72187 0.2533,1.58438 -0.079,1.91667 -0.3323,0.33229 -0.5687,-0.25834 -0.5252,-1.3125 z m -215.67395,-1.66667 -1.90499,-2.25 2.25,1.90499 c 2.11444,1.79022 2.70524,2.59501 1.90499,2.59501 -0.18976,0 -1.20226,-1.0125 -2.25,-2.25 z m 49.59501,1.87244 c 0,-0.20765 0.7875,-0.99515 1.75,-1.75 1.58606,-1.24387 1.62143,-1.2085 0.37756,0.37756 -1.30637,1.66575 -2.12756,2.19548 -2.12756,1.37244 z m -139,-1.51479 c 0,-0.67413 -0.51953,-0.9046 -1.15451,-0.51216 -0.74421,0.45995 -0.88179,0.27227 -0.38713,-0.52811 0.54526,-0.88225 1.07722,-0.9318 1.83784,-0.17118 0.58876,0.58876 0.76297,1.37797 0.38713,1.7538 -0.37583,0.37583 -0.68333,0.13178 -0.68333,-0.54235 z m 186.45294,-5.35765 -3.9529,-4.25 4.25,3.95295 c 3.9524,3.6762 4.7095,4.54705 3.9529,4.54705 -0.1634,0 -2.0759,-1.9125 -4.25,-4.25 z m 119.5471,2.25 c 0,-0.55 0.4765,-1 1.059,-1 0.5824,0 0.7809,0.45 0.441,1 -0.34,0.55 -0.8165,1 -1.0591,1 -0.2425,0 -0.4409,-0.45 -0.4409,-1 z M 324.97929,631.0665 c -0.36253,-0.58659 -0.44468,-1.281 -0.18255,-1.54313 0.26212,-0.26213 0.74306,0.21781 1.06875,1.06653 0.67618,1.76211 0.0999,2.07206 -0.8862,0.4766 z m 7.10541,-0.64034 c -0.54268,-1.4252 -0.42782,-1.54006 0.5598,-0.5598 0.68342,0.67834 0.99067,1.48524 0.68278,1.79313 -0.30789,0.30789 -0.86705,-0.24711 -1.24258,-1.23333 z m 130.18571,1.04459 c 0.6875,-0.27741 1.8125,-0.27741 2.5,0 0.6875,0.27741 0.125,0.50439 -1.25,0.50439 -1.375,0 -1.9375,-0.22698 -1.25,-0.50439 z m 109.12244,-1.08772 c -1.2439,-1.58606 -1.2085,-1.62143 0.3776,-0.37756 1.6657,1.30637 2.1954,2.12756 1.3724,2.12756 -0.2076,0 -0.9951,-0.7875 -1.75,-1.75 z m 34,-1 c -1.2439,-1.58606 -1.2085,-1.62143 0.3776,-0.37756 1.6657,1.30637 2.1954,2.12756 1.3724,2.12756 -0.2076,0 -0.9951,-0.7875 -1.75,-1.75 z m -199,-3 c -1.24387,-1.58606 -1.2085,-1.62143 0.37756,-0.37756 1.66575,1.30637 2.19548,2.12756 1.37244,2.12756 -0.20765,0 -0.99515,-0.7875 -1.75,-1.75 z m 158.9401,1.06689 c 0.7218,-0.28887 1.5843,-0.25335 1.9166,0.0789 0.3323,0.33229 -0.2583,0.56864 -1.3125,0.52522 -1.1649,-0.048 -1.4019,-0.28494 -0.6041,-0.60416 z m 22.1875,-2.69445 c 0,-0.20765 0.7875,-0.99515 1.75,-1.75 1.586,-1.24387 1.6214,-1.2085 0.3775,0.37756 -1.3063,1.66575 -2.1275,2.19548 -2.1275,1.37244 z m -281.18754,-1.30555 c 0.72187,-0.28887 1.58437,-0.25335 1.91667,0.0789 0.33229,0.33229 -0.25834,0.56864 -1.3125,0.52522 -1.16495,-0.048 -1.4019,-0.28494 -0.60417,-0.60416 z m 333.26644,-1.90022 c 0.048,-1.16495 0.285,-1.4019 0.6042,-0.60417 0.2888,0.72187 0.2533,1.58438 -0.079,1.91667 -0.3323,0.33229 -0.5687,-0.25834 -0.5252,-1.3125 z m 21.6523,-3.49683 c 0.3536,-1.3522 0.8069,-1.8055 1.0565,-1.05655 0.2405,0.72144 -0.038,1.78716 -0.6193,2.36826 -0.7421,0.74207 -0.8722,0.35164 -0.4372,-1.31171 z m -339.3472,-10.36143 c -0.30425,-0.79287 -0.37694,-2.25537 -0.16154,-3.25 0.24456,-1.12921 0.58685,-0.58778 0.91138,1.44159 0.5446,3.40551 0.19062,4.25921 -0.74984,1.80841 z m 356.5621,-2.30841 -3.4461,-3.75 3.75,3.44617 c 2.0625,1.89539 3.75,3.58289 3.75,3.75 0,0.76362 -0.8463,0.0442 -4.0539,-3.44617 z m -4.1336,-7.93311 c 0.7218,-0.28887 1.5843,-0.25335 1.9166,0.0789 0.3323,0.33229 -0.2583,0.56864 -1.3125,0.52522 -1.1649,-0.048 -1.4019,-0.28494 -0.6041,-0.60416 z m 12.0247,-12.40728 c 0.2057,-2.15718 0.6723,-4.10647 1.0368,-4.33176 0.3645,-0.22529 0.4945,1.35535 0.2887,3.51254 -0.2057,2.15718 -0.6722,4.10647 -1.0368,4.33176 -0.3645,0.22529 -0.4944,-1.35535 -0.2887,-3.51254 z m -45.3372,-2.33436 c -3.3,-0.67584 -11.0133,-2.66886 -17.1406,-4.42893 l -11.1405,-3.20013 -23.3595,0.20637 c -25.792,0.22785 -30.791,-0.50152 -48.8594,-7.12884 -27.06506,-9.92718 -27.14463,-9.94938 -64.71252,-18.05288 -50.24487,-10.83797 -70.00563,-17.56933 -88.58443,-30.17567 -6.02885,-4.09078 -16.026,-13.6615 -17.87078,-17.1085 -0.99818,-1.86512 -0.87241,-1.85141 2.03986,0.22231 4.93006,3.51051 16.97067,8.74278 25.12783,10.91935 4.125,1.10067 12.72801,3.81892 19.1178,6.04057 17.30999,6.01844 29.08862,8.12707 45.53928,8.1525 7.61361,0.0118 20.14292,0.39729 27.84292,0.85672 7.7,0.45943 18.05,0.5623 23,0.2286 l 9,-0.60672 -5.5,-4.40581 c -15.07455,-12.07557 -29.7768,-20.33377 -74.50099,-41.84696 -15.44108,-7.42746 -21.8699,-12.0561 -25.9674,-18.69607 -2.78666,-4.51577 -3.02412,-5.60508 -2.93887,-13.48193 0.0781,-7.22056 0.66394,-10.13105 3.72203,-18.49277 4.39764,-12.0244 7.76799,-15.96323 15.61,-18.24297 7.25264,-2.1084 16.70315,-1.19689 28.47244,2.74619 19.18736,6.42835 44.79457,22.10962 53.36891,32.6819 6.67357,8.22859 7.93372,9.23842 11.52846,9.23842 5.23826,0 17.93606,3.56265 24.75366,6.94517 3.3863,1.68016 6.2812,3.05483 6.4331,3.05483 0.1518,0 0.8105,-1.2903 1.4637,-2.86733 l 1.1877,-2.86733 7.6836,1.43063 c 13.4666,2.50736 23.4653,5.34953 31.4526,8.94047 8.6168,3.87394 13.0493,4.13465 13.5268,0.79562 0.381,-2.66513 -3.4947,-6.56128 -11.9391,-12.00197 -3.6539,-2.35417 -10.2848,-6.98027 -14.7355,-10.28023 -5.9225,-4.39122 -9.5707,-6.33082 -13.6066,-7.23403 -4.242,-0.94932 -5.5145,-1.65888 -5.5145,-3.07496 0,-4.76625 17.5341,0.97635 31.7368,10.3941 14.1222,9.36441 19.0207,11.81513 25.7632,12.88941 3.3371,0.53171 7.989,2.17258 10.4817,3.69728 5.3086,3.24707 16.1447,15.7699 19.2917,22.29466 1.837,3.80874 3.0138,4.90785 6.7266,6.28269 6.4954,2.40527 13.6619,7.99844 17.0072,13.27346 4.5365,7.15329 6.0332,17.84667 3.4428,24.59719 -0.3644,0.94958 0.5226,1.89057 2.5888,2.74642 5.9742,2.47461 14.9731,8.95517 16.9598,12.21364 2.7513,4.51247 2.6071,10.56063 -0.347,14.5648 -4.9971,6.77309 -15.0414,13.44964 -26.1434,17.37781 -6.6521,2.35364 -9.5019,2.81125 -17,2.7297 -4.9545,-0.0539 -11.7082,-0.65093 -15.0082,-1.32678 z m 53.1642,-29.14271 c 1.4327,-3.73342 -5.2994,-10.32034 -12.7241,-12.4497 -3.1068,-0.89104 -3.5913,-0.72482 -5.685,1.95035 -1.2587,1.60842 -3.8798,3.90777 -5.8245,5.10967 -1.9447,1.2019 -3.2588,2.47144 -2.9202,2.82121 1.0087,1.04188 16.613,3.9381 21.7709,4.04076 3.4817,0.0693 4.9449,-0.33091 5.3829,-1.47229 z m -79.066,-32.41695 c 16.066,-2.08829 27.5023,-5.99422 17.6518,-6.02873 -6.1352,-0.0215 -21.1133,-3.5036 -30.8664,-7.17582 -11.634,-4.38038 -21.6048,-10.10264 -34.0164,-19.52192 -28.0366,-21.27725 -40.29161,-26.67946 -60.36724,-26.61084 -7.74563,0.0265 -12.46741,0.6079 -18,2.21645 -10.13793,2.9475 -26.68098,5.99221 -36.77265,6.76792 -4.56218,0.35068 -8.49272,0.9577 -8.73452,1.34895 -0.69101,1.11809 19.95323,11.46573 32.57101,16.32577 17.39314,6.69939 95.9726,30.91468 105.9362,32.64562 6.365,1.10578 24.2047,1.12362 32.5982,0.0326 z m 20.0158,-19.08609 c 6.8375,-4.22581 9.2676,-11.44445 5.9684,-17.72916 -1.9425,-3.70026 -8.1502,-9.40908 -13.6703,-12.57178 -5.9534,-3.41094 -7.0089,-3.36221 -6.2785,0.28985 0.767,3.83471 -3.0324,15.21366 -6.4267,19.2475 -1.4343,1.70455 -3.9801,3.68308 -5.6574,4.39673 l -3.0495,1.29755 4.6089,2.0543 c 5.6763,2.53006 14.4189,4.93169 18.273,5.0197 1.5851,0.0362 4.3896,-0.86592 6.2321,-2.00469 z m -332.7416,77.3205 c -1.24387,-1.58606 -1.2085,-1.62143 0.37756,-0.37756 0.9625,0.75485 1.75,1.54235 1.75,1.75 0,0.82304 -0.82119,0.29331 -2.12756,-1.37244 z m 389.8776,1.08772 c 0.6875,-0.27741 1.8125,-0.27741 2.5,0 0.6875,0.27741 0.125,0.50439 -1.25,0.50439 -1.375,0 -1.9375,-0.22698 -1.25,-0.50439 z m -393.8776,-8.08772 c -1.24387,-1.58606 -1.2085,-1.62143 0.37756,-0.37756 0.9625,0.75485 1.75,1.54235 1.75,1.75 0,0.82304 -0.82119,0.29331 -2.12756,-1.37244 z m 402,-30 c -1.2439,-1.58606 -1.2085,-1.62143 0.3776,-0.37756 0.9625,0.75485 1.75,1.54235 1.75,1.75 0,0.82304 -0.8212,0.29331 -2.1276,-1.37244 z m -57.9481,-74 -2.4243,-2.75 2.75,2.42431 c 2.5703,2.26589 3.2086,3.07569 2.4243,3.07569 -0.1791,0 -1.4166,-1.2375 -2.75,-2.75 z m -319.92434,-4.75 c 1.29175,-1.375 2.57363,-2.5 2.84863,-2.5 0.275,0 -0.55688,1.125 -1.84863,2.5 -1.29175,1.375 -2.57363,2.5 -2.84863,2.5 -0.275,0 0.55688,-1.125 1.84863,-2.5 z m 33.8125,-15.18311 c 0.72187,-0.28887 1.58437,-0.25335 1.91667,0.0789 0.33229,0.33229 -0.25834,0.56864 -1.3125,0.52522 -1.16495,-0.048 -1.4019,-0.28494 -0.60417,-0.60416 z m 95.05994,-71.06689 c -1.24387,-1.58606 -1.2085,-1.62143 0.37756,-0.37756 1.66575,1.30637 2.19548,2.12756 1.37244,2.12756 -0.20765,0 -0.99515,-0.7875 -1.75,-1.75 z m 17.12756,-2.56291 c 0,-0.1721 1.4625,-1.6346 3.25,-3.25 l 3.25,-2.93709 -2.93709,3.25 c -2.73778,3.02946 -3.56291,3.70965 -3.56291,2.93709 z m -9.12756,-7.43709 c -1.24387,-1.58606 -1.2085,-1.62143 0.37756,-0.37756 0.9625,0.75485 1.75,1.54235 1.75,1.75 0,0.82304 -0.82119,0.29331 -2.12756,-1.37244 z m -75.71455,-123.25 c 0,-1.375 0.22698,-1.9375 0.50439,-1.25 0.27741,0.6875 0.27741,1.8125 0,2.5 -0.27741,0.6875 -0.50439,0.125 -0.50439,-1.25 z"
         id="path3134"
         inkscape:connector-curvature="0" />
      <path
         style="fill:#efd790"
         d="m 433.2154,785.0564 c -3.05733,-4.6943 -7.41063,-23.56482 -12.76761,-55.34457 -3.09692,-18.37211 -9.92738,-64.01506 -9.92738,-66.33735 0,-0.70015 1.30449,0.18697 2.89886,1.97138 2.56418,2.86982 3.21623,3.13141 5.64785,2.26578 4.04755,-1.44088 6.48315,-5.37681 8.43469,-13.63048 l 1.73744,-7.34813 0.63697,4 c 2.66281,16.72156 7.58395,77.59179 8.32804,103.01056 0.63717,21.76623 0.16942,28.94027 -2.08823,32.02778 -1.25157,1.71163 -1.40678,1.67873 -2.90063,-0.61497 z m 53.83459,-0.23788 c -5.32735,-8.13057 -9.36904,-43.74275 -11.14325,-98.18549 l -0.68436,-21 3.05023,3.25 c 4.06814,4.33459 8.24816,4.40348 12.44652,0.20513 1.67468,-1.67468 3.1673,-2.91218 3.31694,-2.75 0.14964,0.16218 0.83096,16.26987 1.51405,35.79487 2.22055,63.47052 -0.94078,94.22251 -8.50013,82.68549 z m -28.57955,-1.31692 c -2.41095,-6.34128 -4.79663,-21.24539 -7.90234,-49.36857 -2.34215,-21.20886 -6.03078,-63.60316 -6.04088,-69.42931 l -0.007,-3.92932 2.75,5.42932 c 2.36628,4.67172 3.1949,5.47239 5.93844,5.73808 4.37817,0.42398 6.183,-2.62464 7.70885,-13.02137 l 1.21628,-8.2874 0.73856,15.5 c 2.8692,60.21508 3.31646,89.09618 1.64577,106.27146 -1.25791,12.93168 -3.66861,17.35503 -6.04787,11.09711 z m 54.14337,-1.11857 c -1.79573,-6.84562 -3.09216,-26.65503 -4.08385,-62.40141 -1.23136,-44.38535 -1.2154,-59.17906 0.0604,-55.99375 3.381,8.44143 8.49946,10.53972 11.94101,4.89516 l 1.98156,-3.25 0.003,30 c 0.006,53.21099 -3.1322,90.5 -7.61542,90.5 -0.71675,0 -1.74583,-1.6875 -2.28686,-3.75 z m -103.95771,-4 c -4.71648,-9.28462 -12.6744,-39.99106 -22.01271,-84.93826 -3.29229,-15.84646 -6.30158,-30.61174 -6.68731,-32.81174 l -0.70132,-4 2.58194,2.37651 c 3.17351,2.92102 4.74961,2.39566 8.54934,-2.84972 l 2.94598,-4.0668 2.14242,9.27 c 12.24889,52.99953 21.36648,112.56558 18.15,118.57562 -1.65793,3.09788 -2.78343,2.74548 -4.96834,-1.55561 z m 132.08455,-1.5 c -3.1262,-3.8136 -3.7202,-10.48052 -3.7202,-41.75 0,-31.81001 2.0537,-73 3.6398,-73 0.4731,0 0.8602,0.4487 0.8602,0.99712 0,1.8374 7.2106,9.00288 9.0596,9.00288 1.0048,0 2.5275,-1.00013 3.3837,-2.22251 1.4774,-2.10938 1.5566,-1.89307 1.5552,4.25 0,22.56318 -3.8617,75.85504 -6.4792,89.53544 -2.3532,12.29869 -5.2518,16.90453 -8.2991,13.18707 z m 26.5975,-0.93923 c -2.7205,-4.77066 -0.7447,-84.3092 2.7473,-110.6025 l 0.57,-4.29174 4.7335,5.04174 c 2.903,3.09218 5.5837,5.04173 6.9324,5.04173 2.7309,0 2.76,1.24846 0.7119,30.5 -2.7576,39.38548 -6.2747,64.31938 -10.1849,72.20483 -2.2472,4.53175 -3.7906,5.1216 -5.5102,2.10594 z m 22.7748,-3.01987 c -1.3304,-6.5391 -1.4752,-15.57772 -0.5904,-36.8509 1.5396,-37.01247 5.2713,-89.54675 6.4442,-90.71963 0.3357,-0.33574 3.728,2.48327 7.5384,6.26447 7.8561,7.79591 6.8351,8.15554 10.5691,-3.72271 0.9921,-3.15583 1.9611,-5.58051 2.1534,-5.38818 0.4414,0.44137 -4.4044,31.9983 -10.3077,67.12605 -8.3435,49.64866 -13.986,72.24117 -15.807,63.2909 z m -201.3775,-2.0409 c -5.05848,-6.13986 -14.20528,-38.21361 -26.75447,-93.81608 -4.54884,-20.15481 -5.12706,-23.53229 -3.62299,-21.16248 0.58416,0.92041 2.99577,-0.57147 8.73469,-5.40347 4.36025,-3.6712 7.4287,-6.12931 6.81877,-5.46248 -0.8163,0.89246 -0.63869,3.2422 0.67296,8.90347 7.40192,31.94766 16.19273,80.82532 17.91638,99.61661 1.28435,14.00203 -0.34108,21.4807 -3.76534,17.32443 z m 224.4754,-9.39286 c -1.1778,-1.17785 -0.7622,-17.40319 0.8448,-32.97785 1.5409,-14.93369 10.1584,-77.71733 11.0095,-80.20974 0.3024,-0.88581 2.3592,0.36742 6.1544,3.75 3.135,2.79425 5.9989,5.08045 6.364,5.08045 0.7773,0 -1.2878,11.84876 -8.1911,47 -8.4774,43.16562 -13.2953,60.24336 -16.1816,57.35714 z m -245.31591,-3.90828 c -2.44508,-3.73166 -10.69067,-28.12608 -15.44535,-45.69472 -4.67486,-17.27375 -16.88616,-68.04445 -16.20121,-67.3595 0.24698,0.24698 2.52348,-0.86652 5.0589,-2.47443 2.53542,-1.60792 4.92779,-2.58525 5.31637,-2.17185 0.74005,0.78731 8.23678,27.20611 14.25965,50.25164 8.62089,32.98639 12.8359,55.67382 11.94576,64.29843 -0.65566,6.3527 -2.19282,7.33418 -4.93412,3.15043 z m 264.29211,-0.11553 c -2.5791,-2.5791 2.0437,-44.6138 11.4391,-104.01482 l 2.243,-14.1815 4.4664,3.9315 c 4.9003,4.31338 6.1849,4.78378 6.1849,2.26482 0,-0.91666 0.2575,-1.40909 0.5724,-1.09427 1.0691,1.06919 -13.0926,77.85452 -18.1947,98.65203 -3.368,13.72862 -4.655,16.49832 -6.7111,14.44224 z M 347.46283,731.63011 c -4.64989,-10.06466 -15.20276,-40.7391 -25.32471,-73.6123 l -7.27133,-23.61522 2.35279,-4.87505 c 4.5127,-9.35042 4.1944,-9.78 12.66546,17.0933 18.71749,59.37871 26.95619,93.51219 22.57076,93.51219 -0.58554,0 -2.83237,-3.82632 -4.99297,-8.50292 z m 300.14782,7.84804 c -0.4216,-5.39426 5.203,-42.18114 13.5559,-88.6606 l 2.8422,-15.81549 3.5058,0.65467 c 1.9282,0.36007 3.6354,0.78161 3.7938,0.93676 0.1584,0.15515 -1.5017,8.32752 -3.6891,18.16082 -14.408,64.7717 -19.7876,87.55078 -20.0086,84.72384 z M 329.85052,707.63303 c -3.2551,-8.27065 -12.60977,-37.7149 -21.12758,-66.5 l -4.88253,-16.5 3.08322,-0.67344 c 1.69577,-0.3704 3.13001,-0.5954 3.18719,-0.5 0.5277,0.88036 17.19283,61.48771 19.94427,72.53283 4.45731,17.89302 4.36323,23.24662 -0.20457,11.64061 z m 329.70903,1.5 c -0.03,-4.85103 5.0539,-29.44205 11.0417,-53.40765 7.5972,-30.40732 6.7159,-27.77149 8.8954,-26.60507 2.6602,1.42367 2.567,1.49721 4.4938,-3.54804 0.958,-2.50841 1.9134,-4.3891 2.1232,-4.1793 0.4204,0.42033 -14.2699,53.36758 -20.7366,74.74006 -4.7551,15.71559 -5.7864,18.02002 -5.8175,13 z M 443.59936,658.5497 c 0.048,-1.16495 0.28494,-1.4019 0.60416,-0.60417 0.28887,0.72187 0.25335,1.58438 -0.0789,1.91667 -0.3323,0.33229 -0.56864,-0.25834 -0.52522,-1.3125 z m -87,-6 c 0.048,-1.16495 0.28494,-1.4019 0.60416,-0.60417 0.28887,0.72187 0.25335,1.58438 -0.0789,1.91667 -0.3323,0.33229 -0.56864,-0.25834 -0.52522,-1.3125 z m 229.99999,-3 c 0.048,-1.16495 0.285,-1.4019 0.6042,-0.60417 0.2888,0.72187 0.2533,1.58438 -0.079,1.91667 -0.3323,0.33229 -0.5687,-0.25834 -0.5252,-1.3125 z m -123.34561,-6.54076 c 0.67834,-0.68342 1.48524,-0.99067 1.79313,-0.68278 0.30789,0.30789 -0.24711,0.86705 -1.23333,1.24258 -1.4252,0.54268 -1.54006,0.42782 -0.5598,-0.5598 z m 51.07917,-0.55902 c 0.72187,-0.28887 1.58438,-0.25335 1.91667,0.0789 0.33229,0.33229 -0.25834,0.56864 -1.3125,0.52522 -1.16495,-0.048 -1.4019,-0.28494 -0.60417,-0.60416 z m 143.26644,-1.90022 c 0.048,-1.16495 0.285,-1.4019 0.6042,-0.60417 0.2888,0.72187 0.2533,1.58438 -0.079,1.91667 -0.3323,0.33229 -0.5687,-0.25834 -0.5252,-1.3125 z m -231.07894,-5.91667 c 1.29175,-1.375 2.57363,-2.5 2.84863,-2.5 0.275,0 -0.55688,1.125 -1.84863,2.5 -1.29175,1.375 -2.57363,2.5 -2.84863,2.5 -0.275,0 0.55688,-1.125 1.84863,-2.5 z M 688.08475,615.8399 c 0.3755,-0.98622 0.9346,-1.54122 1.2425,-1.23333 0.3079,0.30789 7e-4,1.11479 -0.6827,1.79313 -0.9877,0.98026 -1.1025,0.8654 -0.5598,-0.5598 z m -10.7518,-2.38998 c 0.7218,-0.28887 1.5843,-0.25335 1.9166,0.0789 0.3323,0.33229 -0.2583,0.56864 -1.3125,0.52522 -1.1649,-0.048 -1.4019,-0.28494 -0.6041,-0.60416 z"
         id="path3132"
         inkscape:connector-curvature="0" />
      <path
         style="fill:#f2ad98"
         d="m 462.33291,805.44992 c 0.72187,-0.28887 1.58438,-0.25335 1.91667,0.0789 0.33229,0.33229 -0.25834,0.56864 -1.3125,0.52522 -1.16495,-0.048 -1.4019,-0.28494 -0.60417,-0.60416 z m 43.45653,-0.01 c 0.97297,-0.25354 2.32297,-0.23687 3,0.0371 0.67703,0.27393 -0.11903,0.48137 -1.76903,0.46099 -1.65,-0.0204 -2.20394,-0.2445 -1.23097,-0.49804 z m -19.88183,-190.2647 c -8.91964,-1.37876 -28.45008,-8.71483 -61.3872,-23.05841 -24.4858,-10.66317 -34.62085,-14.5597 -48.22897,-18.54218 -15.23206,-4.45774 -25.37964,-8.79772 -34.76252,-14.86748 -19.84729,-12.83914 -29.89251,-28.75451 -30.02712,-47.57412 l -0.0608,-8.5 -4.61748,5 c -6.35772,6.88441 -10.45927,15.95027 -11.06851,24.46528 -1.48026,20.68849 16.99501,42.20609 52.7654,61.45431 6.70893,3.61011 7.7625,4.45001 5,3.98597 -27.74914,-4.66126 -57.81594,-29.26075 -64.54384,-52.80728 -1.20328,-4.21128 -1.56675,-8.36455 -1.26894,-14.5 0.6241,-12.85761 4.96345,-21.27025 17.52459,-33.97468 6.73295,-6.80975 10.53937,-11.62499 13.01829,-16.46852 7.99063,-15.61284 24.39263,-25.65508 41.90245,-25.65508 5.49188,0 5.48068,1.74023 -0.0235,3.6458 -6.0521,2.0953 -13.19569,7.98294 -17.49191,14.41658 -7.8051,11.68822 -10.55967,23.57991 -9.94602,42.93762 0.46273,14.59677 2.08473,19.33915 8.86487,25.91905 8.08612,7.84731 16.56495,10.72795 42.85708,14.56044 12.85047,1.87315 30.84687,7.81264 54.60689,18.02232 22.59824,9.71046 25.88784,10.84602 39.18747,13.52737 5.94689,1.19895 14.41253,3.29681 18.81253,4.66191 8.832,2.74011 28.5,11.95167 28.5,13.34805 0,1.24251 -13.57788,7.50512 -19,8.76349 -6.99474,1.62335 -15.0112,2.10542 -20.6128,1.23956 z m 131.11284,-14.05371 c -11.5585,-3.29308 -27.5972,-5.02962 -54.5,-5.90083 -18.889,-0.61169 -26.572,-1.22658 -29.6349,-2.37175 -2.2742,-0.85028 -10.59924,-5.67923 -18.50005,-10.731 -22.01152,-14.07415 -41.14923,-22.89416 -75.36509,-34.73358 -54.01948,-18.6919 -81.17907,-36.12956 -78.82895,-50.61168 0.33158,-2.04325 0.94129,-3.58555 1.35493,-3.42732 0.41364,0.15822 2.43542,2.31268 4.49286,4.78768 2.05744,2.475 3.86988,4.275 4.02765,4 0.15776,-0.275 0.66184,-0.0904 1.12018,0.41033 0.48416,0.52889 0.30957,0.60891 -0.41667,0.19098 -2.91827,-1.67939 -0.84215,1.50394 4.65846,7.14284 6.80493,6.97601 14.48585,12.42158 24.94239,17.68349 17.07397,8.59192 33.4606,13.48884 75.43667,22.5432 37.56789,8.1035 37.64746,8.1257 64.71252,18.05288 18.0753,6.62983 23.0623,7.35676 48.9038,7.1283 l 23.4038,-0.20691 12.0962,3.44925 c 6.6529,1.89708 14.7663,3.93444 18.0298,4.52744 7.7391,1.40625 22.1278,1.38326 24.7865,-0.0396 2.0315,-1.08721 2.0254,-1.01199 -0.2228,2.75 -3.7927,6.34647 -8.1222,10.30016 -14.9763,13.67638 -5.9484,2.93006 -7.3815,3.21119 -17.5,3.43283 -8.5566,0.18743 -12.5863,-0.20455 -18.021,-1.75293 z M 285.77041,569.4437 c 0.9625,-0.25152 2.5375,-0.25152 3.5,0 0.9625,0.25153 0.175,0.45733 -1.75,0.45733 -1.925,0 -2.7125,-0.2058 -1.75,-0.45733 z m 415.82894,-12.894 c 0.048,-1.16495 0.285,-1.4019 0.6042,-0.60417 0.2888,0.72187 0.2533,1.58438 -0.079,1.91667 -0.3323,0.33229 -0.5687,-0.25834 -0.5252,-1.3125 z m -17.3289,-2.07895 c 0.6875,-0.27741 1.8125,-0.27741 2.5,0 0.6875,0.27741 0.125,0.50439 -1.25,0.50439 -1.375,0 -1.9375,-0.22698 -1.25,-0.50439 z m -5.9375,-1.02083 c 0.7218,-0.28887 1.5843,-0.25335 1.9166,0.0789 0.3323,0.33229 -0.2583,0.56864 -1.3125,0.52522 -1.1649,-0.048 -1.4019,-0.28494 -0.6041,-0.60416 z m -5,-1 c 0.7218,-0.28887 1.5843,-0.25335 1.9166,0.0789 0.3323,0.33229 -0.2583,0.56864 -1.3125,0.52522 -1.1649,-0.048 -1.4019,-0.28494 -0.6041,-0.60416 z m -6.2449,-1.20751 c -0.3028,-0.48983 0.6832,-1.64154 2.191,-2.55935 l 2.7414,-1.66873 -2.2664,1.98288 c -2.0435,1.78795 -2.0927,2.02814 -0.5,2.44335 1.5747,0.41051 1.5829,0.47305 0.075,0.57647 -0.93,0.0638 -1.9387,-0.28478 -2.2414,-0.77462 z m 23.3048,-4.85938 c -1.2439,-1.58606 -1.2085,-1.62143 0.3776,-0.37756 1.6657,1.30637 2.1954,2.12756 1.3724,2.12756 -0.2076,0 -0.9951,-0.7875 -1.75,-1.75 z m -16.3724,-1.25 c 0.9955,-1.1 2.0349,-2 2.3099,-2 0.275,0 -0.3144,0.9 -1.3099,2 -0.9955,1.1 -2.035,2 -2.31,2 -0.275,0 0.3145,-0.9 1.31,-2 z m 3.2333,-4.12409 c 0.6783,-0.68342 1.4852,-0.99067 1.7931,-0.68278 0.3079,0.30789 -0.2471,0.86705 -1.2333,1.24258 -1.4252,0.54268 -1.5401,0.42782 -0.5598,-0.5598 z M 500.28207,529.42577 c 1.24391,-0.23919 3.04391,-0.23011 4,0.0202 0.95609,0.25029 -0.0617,0.446 -2.26166,0.4349 -2.2,-0.0111 -2.98225,-0.21589 -1.73834,-0.45508 z m -18.94916,-0.97585 c 0.72187,-0.28887 1.58438,-0.25335 1.91667,0.0789 0.33229,0.33229 -0.25834,0.56864 -1.3125,0.52522 -1.16495,-0.048 -1.4019,-0.28494 -0.60417,-0.60416 z m -35.0625,-0.97917 c 0.6875,-0.27741 1.8125,-0.27741 2.5,0 0.6875,0.27741 0.125,0.50439 -1.25,0.50439 -1.375,0 -1.9375,-0.22698 -1.25,-0.50439 z m 24.51903,-0.0307 c 0.97297,-0.25354 2.32297,-0.23687 3,0.0371 0.67703,0.27393 -0.11903,0.48137 -1.76903,0.46099 -1.65,-0.0204 -2.20394,-0.2445 -1.23097,-0.49804 z m -30.45653,-0.99012 c 0.72187,-0.28887 1.58437,-0.25335 1.91667,0.0789 0.33229,0.33229 -0.25834,0.56864 -1.3125,0.52522 -1.16495,-0.048 -1.4019,-0.28494 -0.60417,-0.60416 z m 76.05994,-1.0669 c -1.24387,-1.58606 -1.2085,-1.62143 0.37756,-0.37756 1.66575,1.30637 2.19548,2.12756 1.37244,2.12756 -0.20765,0 -0.99515,-0.7875 -1.75,-1.75 z m 75.8776,-3.9904 c 3.4375,-0.19527 9.0625,-0.19527 12.5,0 3.4375,0.19527 0.625,0.35504 -6.25,0.35504 -6.875,0 -9.6875,-0.15977 -6.25,-0.35504 z m -11.481,-0.95259 c 0.973,-0.25354 2.323,-0.23687 3,0.0371 0.677,0.27393 -0.119,0.48137 -1.769,0.46099 -1.65,-0.0204 -2.204,-0.2445 -1.231,-0.49804 z m 33.981,0.004 c 0.9625,-0.25152 2.5375,-0.25152 3.5,0 0.9625,0.25153 0.175,0.45733 -1.75,0.45733 -1.925,0 -2.7125,-0.2058 -1.75,-0.45733 z m -38.4375,-0.99378 c 0.7218,-0.28887 1.5843,-0.25335 1.9166,0.0789 0.3323,0.33229 -0.2583,0.56864 -1.3125,0.52522 -1.1649,-0.048 -1.4019,-0.28494 -0.6041,-0.60416 z m 46,0 c 0.7218,-0.28887 1.5843,-0.25335 1.9166,0.0789 0.3323,0.33229 -0.2583,0.56864 -1.3125,0.52522 -1.1649,-0.048 -1.4019,-0.28494 -0.6041,-0.60416 z m 5,-1 c 0.7218,-0.28887 1.5843,-0.25335 1.9166,0.0789 0.3323,0.33229 -0.2583,0.56864 -1.3125,0.52522 -1.1649,-0.048 -1.4019,-0.28494 -0.6041,-0.60416 z m 4,-1 c 0.7218,-0.28887 1.5843,-0.25335 1.9166,0.0789 0.3323,0.33229 -0.2583,0.56864 -1.3125,0.52522 -1.1649,-0.048 -1.4019,-0.28494 -0.6041,-0.60416 z m -65,-1 c 0.7218,-0.28887 1.5843,-0.25335 1.9166,0.0789 0.3323,0.33229 -0.2583,0.56864 -1.3125,0.52522 -1.1649,-0.048 -1.4019,-0.28494 -0.6041,-0.60416 z m 66.6875,-0.31723 c -1.7723,-0.76156 -1.6869,-0.86743 0.75,-0.92971 1.5125,-0.0387 2.75,0.37971 2.75,0.92971 0,1.17371 -0.7687,1.17371 -3.5,0 z m -8.75,-1.66228 c 0.6875,-0.27741 1.8125,-0.27741 2.5,0 0.6875,0.27741 0.125,0.50439 -1.25,0.50439 -1.375,0 -1.9375,-0.22698 -1.25,-0.50439 z m -4.9375,-1.02083 c 0.7218,-0.28887 1.5843,-0.25335 1.9166,0.0789 0.3323,0.33229 -0.2583,0.56864 -1.3125,0.52522 -1.1649,-0.048 -1.4019,-0.28494 -0.6041,-0.60416 z m -70,-2 c 0.7218,-0.28887 1.5843,-0.25335 1.9166,0.0789 0.3323,0.33229 -0.2583,0.56864 -1.3125,0.52522 -1.1649,-0.048 -1.4019,-0.28494 -0.6041,-0.60416 z m -20.00004,-6 c 0.72184,-0.28887 1.58434,-0.25335 1.91664,0.0789 0.3323,0.33229 -0.2583,0.56864 -1.3125,0.52522 -1.16492,-0.048 -1.40187,-0.28494 -0.60414,-0.60416 z m 91.29644,-2.89831 c -2.9651,-0.79739 -7.4651,-2.37423 -10,-3.50409 l -4.6089,-2.0543 3.0495,-1.29755 c 1.6773,-0.71365 4.2231,-2.69218 5.6574,-4.39673 3.3943,-4.03384 7.1937,-15.41279 6.4267,-19.2475 -0.7304,-3.65206 0.3251,-3.70079 6.2785,-0.28985 5.5201,3.1627 11.7278,8.87152 13.6703,12.57178 3.2992,6.28471 0.8691,13.50335 -5.9684,17.72916 -3.8801,2.39805 -7.0137,2.50371 -14.5051,0.48908 z m -104.29644,-1.10169 c 0.72187,-0.28887 1.58438,-0.25335 1.91667,0.0789 0.33229,0.33229 -0.25834,0.56864 -1.3125,0.52522 -1.16495,-0.048 -1.4019,-0.28494 -0.60417,-0.60416 z m -19,-6 c 0.72187,-0.28887 1.58438,-0.25335 1.91667,0.0789 0.33229,0.33229 -0.25834,0.56864 -1.3125,0.52522 -1.16495,-0.048 -1.4019,-0.28494 -0.60417,-0.60416 z m 71.05994,-6.06689 c -1.2439,-1.58606 -1.2085,-1.62143 0.3776,-0.37756 1.6657,1.30637 2.1954,2.12756 1.3724,2.12756 -0.2076,0 -0.9951,-0.7875 -1.75,-1.75 z m -102.87244,-5.25 c -0.825,-0.53316 -1.05,-0.96937 -0.5,-0.96937 0.55,0 1.675,0.43621 2.5,0.96937 0.825,0.53316 1.05,0.96937 0.5,0.96937 -0.55,0 -1.675,-0.43621 -2.5,-0.96937 z m -16.55887,-8.55517 c -1.86402,-1.49339 -1.85176,-1.51185 0.30887,-0.46481 1.2375,0.59969 2.25,1.29951 2.25,1.55516 0,0.76522 -0.51861,0.54424 -2.55887,-1.09035 z m 149.55891,-2.52684 c -6.6458,-3.19969 -24.8558,-8.29936 -33.9375,-9.50408 -2.7844,-0.36936 -5.0606,-0.9511 -5.0582,-1.29274 0,-0.34164 1.1179,-3.77117 2.4789,-7.62117 1.361,-3.85 2.4841,-7.76094 2.4957,-8.69098 0.063,-5.03702 9.5584,-2.50659 20.1985,5.38261 4.4197,3.27699 11.0253,7.88429 14.6792,10.23846 8.4444,5.44069 12.3201,9.33684 11.9391,12.00197 -0.469,3.27977 -5.3208,3.08485 -12.7957,-0.51407 z m -153.97201,0.12049 c -1.27005,-0.80319 -1.24573,-1.01771 0.17727,-1.56377 0.90709,-0.34808 2.69447,-0.43357 3.97197,-0.18997 2.03975,0.38894 1.98051,0.45949 -0.48629,0.57908 -1.59177,0.0772 -2.5412,0.56951 -2.19098,1.13618 0.7611,1.23148 0.42822,1.24019 -1.47197,0.0385 z m 11.72197,-2.70076 c 0.6875,-0.27741 1.8125,-0.27741 2.5,0 0.6875,0.27741 0.125,0.50439 -1.25,0.50439 -1.375,0 -1.9375,-0.22698 -1.25,-0.50439 z m 8.0625,-1.02083 c 0.72187,-0.28887 1.58438,-0.25335 1.91667,0.0789 0.33229,0.33229 -0.25834,0.56864 -1.3125,0.52522 -1.16495,-0.048 -1.4019,-0.28494 -0.60417,-0.60416 z m 6,-1 c 0.72187,-0.28887 1.58438,-0.25335 1.91667,0.0789 0.33229,0.33229 -0.25834,0.56864 -1.3125,0.52522 -1.16495,-0.048 -1.4019,-0.28494 -0.60417,-0.60416 z m 149.00004,-5 c 0.7218,-0.28887 1.5843,-0.25335 1.9166,0.0789 0.3323,0.33229 -0.2583,0.56864 -1.3125,0.52522 -1.1649,-0.048 -1.4019,-0.28494 -0.6041,-0.60416 z m -101.00004,-1 c 0.72187,-0.28887 1.58438,-0.25335 1.91667,0.0789 0.33229,0.33229 -0.25834,0.56864 -1.3125,0.52522 -1.16495,-0.048 -1.4019,-0.28494 -0.60417,-0.60416 z m -14.0625,-1.04029 c 1.7875,-0.22182 4.7125,-0.22182 6.5,0 1.7875,0.22183 0.325,0.40333 -3.25,0.40333 -3.575,0 -5.0375,-0.1815 -3.25,-0.40333 z m -145,-12.93888 c 0.6875,-0.27741 1.8125,-0.27741 2.5,0 0.6875,0.27741 0.125,0.50439 -1.25,0.50439 -1.375,0 -1.9375,-0.22698 -1.25,-0.50439 z m 145.12244,-8.08772 c -1.24387,-1.58606 -1.2085,-1.62143 0.37756,-0.37756 1.66575,1.30637 2.19548,2.12756 1.37244,2.12756 -0.20765,0 -0.99515,-0.7875 -1.75,-1.75 z m -82.37244,-22.25 c 0.99549,-1.1 2.03498,-2 2.30998,-2 0.275,0 -0.31449,0.9 -1.30998,2 -0.99549,1.1 -2.03498,2 -2.30998,2 -0.275,0 0.31449,-0.9 1.30998,-2 z m -38.19013,-166.5 c 0.006,-3.3 0.1923,-4.52944 0.41486,-2.73209 0.22256,1.79735 0.21797,4.49735 -0.0102,6 -0.22818,1.50265 -0.41027,0.0321 -0.40466,-3.26791 z"
         id="path3130"
         inkscape:connector-curvature="0" />
      <path
         style="fill:#e4b970"
         d="m 465.02041,794.03245 c -15.43147,-1.6098 -32.78099,-5.89453 -45.25144,-11.17553 l -5.25144,-2.22389 -0.44417,-11.5 c -0.65336,-16.91626 -5.69301,-47.14778 -15.66997,-94 l -5.00421,-23.5 4.89237,-9 c 2.69081,-4.95 5.51827,-9 6.28326,-9 1.0104,0 1.84769,3.14585 3.06082,11.5 7.05826,48.60641 9.40256,64.10107 12.48176,82.49819 5.95443,35.57566 10.76544,55.89785 13.83646,58.44657 1.14478,0.95008 1.68815,0.7265 2.74682,-1.13019 0.99202,-1.73982 1.30731,-8.02591 1.2697,-25.31457 -0.0539,-24.76956 -0.86905,-37.18375 -5.55943,-84.66556 -2.81927,-28.54022 -2.91867,-30.87934 -1.43419,-33.75 1.89889,-3.67205 4.77487,-4.01408 7.01646,-0.83444 3.72064,5.27763 5.58688,15.07811 7.56274,39.71524 4.88919,60.96364 10.31182,101.77441 14.01603,105.48476 1.38881,1.3911 2.94945,-0.56881 4.04331,-5.07774 2.5168,-10.3743 2.03389,-67.7776 -1.00117,-119.00912 -0.85526,-14.43674 -0.38168,-17.86314 2.46896,-17.86314 1.50403,0 2.76095,2.1615 5.81503,10 l 3.89626,10 1.30717,30.5 c 2.51966,58.79039 6.61848,88.61625 12.69734,92.39459 3.69962,2.29951 5.40999,-3.98331 6.91314,-25.39459 0.9056,-12.89948 0.86571,-25.01031 -0.18277,-55.5 -0.73763,-21.45 -1.30982,-39.9 -1.27153,-41 0.15659,-4.49819 3.60013,-22.5 4.304,-22.5 0.41726,0 2.45073,3.9375 4.51883,8.75 4.37463,10.17989 4.03495,6.19667 5.43657,63.75 1.29001,52.97005 2.94437,71.5 6.38355,71.5 4.47089,0 7.61813,-37.25254 7.61916,-90.18476 8.2e-4,-42.00177 2.37984,-55.24162 9.35512,-52.06348 1.69,0.77002 2.9733,2.7451 4.1779,6.42983 0.9562,2.92513 2.2722,6.44341 2.9244,7.81841 0.9186,1.93656 0.8952,6.10601 -0.104,18.5 -0.7094,8.8 -1.5921,30.175 -1.9615,47.5 -0.842,39.4962 0.6128,52.79937 5.8851,53.81473 5.4732,1.05404 9.6567,-27.84161 11.7004,-80.81473 0.9428,-24.43752 2.9745,-43.1276 5.6396,-51.87929 0.231,-0.7586 2.6315,2.30026 5.3344,6.79748 l 4.9144,8.17676 -2.0573,26.70252 c -2.5172,32.67332 -3.1028,85.30869 -0.9902,89.0133 1.7196,3.01566 3.263,2.42581 5.5102,-2.10594 4.0379,-8.14298 7.5722,-33.71082 10.1192,-73.20483 1.786,-27.69213 4.6241,-58.73228 5.4591,-59.70585 0.333,-0.38822 2.0902,0.23423 3.9049,1.38322 3.1913,2.02059 3.2807,2.25682 2.7249,7.20585 -0.714,6.35869 -3.0979,40.06139 -4.5582,64.44243 -1.5781,26.34863 -1.7176,57.19769 -0.2698,59.67435 1.0886,1.86229 1.2851,1.72458 2.853,-2 3.4999,-8.31384 14.8028,-69.53955 22.0148,-119.25 1.0694,-7.37104 2.2262,-12.25 2.9046,-12.25 0.62,0 2.5053,1.4625 4.1895,3.25 l 3.0623,3.25 -4.7734,32.87513 c -2.6254,18.08132 -5.5186,40.35632 -6.4294,49.5 -1.7334,17.4027 -1.7473,32.70463 -0.029,32.51376 3.6125,-0.4014 8.7557,-22.26227 23.6181,-100.38889 1.0986,-5.775 2.6937,-13.58667 3.5447,-17.35928 1.3837,-6.13429 1.7077,-6.69878 3.0657,-5.34076 1.358,1.35801 1.0862,4.30255 -2.572,27.85927 -5.5183,35.5345 -9.0542,63.6246 -9.8336,78.11981 -0.5954,11.0725 -0.4964,12.12805 1.2656,13.50082 1.6611,1.29412 1.6798,1.40926 0.143,0.87895 -1.0977,-0.37876 -3.7531,0.65771 -7,2.73221 -22.5448,14.40422 -55.7237,25.04971 -93.7315,30.07387 -24.03824,3.17756 -51.04136,4.15148 -67.50002,2.43453 z m -58.08664,-16.88606 c -1.26189,-1.26189 -12.45132,-8.01283 -13.28451,-8.01498 -0.34587,-8.9e-4 -0.7255,-3.89252 -0.84362,-8.64807 -0.38319,-15.42701 -5.13309,-44.68271 -14.42557,-88.85031 -2.77716,-13.2 -5.1192,-24.39375 -5.20452,-24.875 -0.0853,-0.48125 0.29845,-1.04495 0.85285,-1.25266 1.46932,-0.55051 5.05413,10.48138 7.51533,23.12766 8.1924,42.09471 18.81088,87.20446 23.95114,101.75 1.50633,4.2625 2.66831,7.75 2.58216,7.75 -0.0861,0 -0.60061,-0.44399 -1.14326,-0.98664 z m -18.51327,-5.73006 c -1.28745,-1.63983 -1.25317,-1.66779 0.42613,-0.3476 1.58695,1.2476 1.95722,1.2476 2.82613,0 0.86849,-1.247 0.94883,-1.24677 0.61128,0.002 -0.58998,2.18226 -2.30146,2.33545 -3.86354,0.3458 z m -20.02765,-12.0333 c -1.19261,-1.5207 -1.1759,-1.60381 0.12756,-0.63427 0.825,0.61365 2.175,1.36562 3,1.67105 1.25475,0.46453 1.23389,0.56823 -0.12756,0.63427 -0.89515,0.0434 -2.24515,-0.70855 -3,-1.67105 z m 9.66963,-3.31798 -4.41323,-4.06798 -0.34606,3.81798 c -0.19033,2.09989 -0.3824,-0.007 -0.42683,-4.68202 -0.0919,-9.6676 -3.84116,-29.16548 -10.88478,-56.6055 -4.14611,-16.1521 -14.03582,-52.09642 -15.08874,-54.84028 -0.23208,-0.6048 0.91605,-1.89004 2.55141,-2.85607 l 2.97338,-1.75642 0.99501,3.77914 c 0.54725,2.07852 3.51723,15.25413 6.59994,29.27913 6.43576,29.27989 16.01558,68.02215 20.338,82.25 1.62913,5.3625 2.77149,9.75 2.5386,9.75 -0.2329,0 -2.40941,-1.83059 -4.8367,-4.06798 z m 258.89417,-5.4426 c 3.6448,-12.36595 10.6335,-47.79464 19.0139,-96.39023 1.935,-11.22044 3.6849,-20.56761 3.8888,-20.77148 0.2039,-0.20387 1.2554,-0.0235 2.3367,0.40081 1.9331,0.7586 1.9184,1.03032 -0.8815,16.27148 -5.5387,30.14933 -11.7941,68.32119 -11.7941,71.96985 0,2.03325 -0.3242,4.02095 -0.7203,4.41712 -0.3962,0.39617 -0.6436,2.38367 -0.5499,4.41667 0.1489,3.22699 0.062,3.37891 -0.68,1.19636 -0.5736,-1.68605 -0.8829,-1.93328 -0.9502,-0.75933 -0.1947,3.40045 -7.0501,20.1542 -9.0755,22.17968 l -2.0585,2.0585 1.4706,-4.98943 z m 9.5638,-11.48942 c 0,-1.1 0.1725,-2 0.3833,-2 0.2109,0 0.6188,0.9 0.9064,2 0.2877,1.1 0.1152,2 -0.3834,2 -0.4985,0 -0.9063,-0.9 -0.9063,-2 z m -292.74786,-3.5 c 0.0111,-2.2 0.21589,-2.98225 0.45508,-1.73834 0.23919,1.24391 0.23011,3.04391 -0.0202,4 -0.25029,0.95609 -0.446,-0.0617 -0.4349,-2.26166 z m 295.82676,-2.08333 c 0.048,-1.16495 0.285,-1.4019 0.6042,-0.60417 0.2888,0.72187 0.2533,1.58438 -0.079,1.91667 -0.3323,0.33229 -0.5687,-0.25834 -0.5252,-1.3125 z m -293.96507,-4.42786 c -1.23301,-2.19384 -2.66305,-3.98881 -3.17785,-3.98881 -0.51481,0 -0.93602,-1.01869 -0.93602,-2.26375 0,-1.24507 -1.77701,-8.69318 -3.9489,-16.55137 -2.1719,-7.85819 -3.67043,-15.01332 -3.33006,-15.90029 0.42158,-1.09864 0.23314,-1.37431 -0.59118,-0.86485 -0.8889,0.54937 -1.02799,0.0225 -0.5241,-1.9851 0.53082,-2.11495 0.38839,-2.54906 -0.62986,-1.91975 -0.97376,0.60182 -1.13477,0.3415 -0.61942,-1.00147 0.70768,-1.84419 -9.59074,-49.50181 -11.40174,-52.76342 -0.72376,-1.30348 -0.60716,-1.75 0.45699,-1.75 1.03886,0 2.97683,6.4802 7.10269,23.75 7.1577,29.96029 15.77917,63.80269 18.39501,72.20708 1.10536,3.55139 1.88297,6.58386 1.72801,6.73881 -0.15495,0.15496 -1.29056,-1.51323 -2.52357,-3.70708 z m 294.96507,0.42786 c 0.048,-1.16495 0.285,-1.4019 0.6042,-0.60417 0.2888,0.72187 0.2533,1.58438 -0.079,1.91667 -0.3323,0.33229 -0.5687,-0.25834 -0.5252,-1.3125 z m -305.4554,-0.95533 c -0.96498,-2.51469 -0.68031,-3.16355 0.49853,-1.13634 0.58369,1.00375 0.8506,2.03566 0.59313,2.29313 -0.25747,0.25747 -0.74872,-0.26309 -1.09166,-1.15679 z m 7.45541,-0.0447 c 0.048,-1.16495 0.28494,-1.4019 0.60416,-0.60417 0.28887,0.72187 0.25335,1.58438 -0.0789,1.91667 -0.3323,0.33229 -0.56864,-0.25834 -0.52522,-1.3125 z m 298.99999,-3 c 0.048,-1.16495 0.285,-1.4019 0.6042,-0.60417 0.2888,0.72187 0.2533,1.58438 -0.079,1.91667 -0.3323,0.33229 -0.5687,-0.25834 -0.5252,-1.3125 z m 2,-9 c 0.048,-1.16495 0.285,-1.4019 0.6042,-0.60417 0.2888,0.72187 0.2533,1.58438 -0.079,1.91667 -0.3323,0.33229 -0.5687,-0.25834 -0.5252,-1.3125 z m -321.099,-0.94084 c -0.69572,-0.83829 -0.97582,-1.81329 -0.62244,-2.16666 0.35337,-0.35338 0.69574,-0.005 0.76081,0.77416 0.0651,0.77917 0.46184,0.0667 0.88169,-1.58333 0.75975,-2.98577 0.76393,-2.98221 0.88169,0.75 0.13183,4.17838 -0.0777,4.42364 -1.90175,2.22583 z m 322.099,-3.05916 c 0.048,-1.16495 0.285,-1.4019 0.6042,-0.60417 0.2888,0.72187 0.2533,1.58438 -0.079,1.91667 -0.3323,0.33229 -0.5687,-0.25834 -0.5252,-1.3125 z m 3.9211,-2.35762 c 0,-2.23246 0.1757,-4.05902 0.3906,-4.05902 0.8008,0 1.1904,7.14093 0.4157,7.61972 -0.4435,0.27407 -0.8063,-1.32824 -0.8063,-3.5607 z M 332.59936,706.5497 c 0.048,-1.16495 0.28494,-1.4019 0.60416,-0.60417 0.28887,0.72187 0.25335,1.58438 -0.0789,1.91667 -0.3323,0.33229 -0.56864,-0.25834 -0.52522,-1.3125 z m 323.99999,-3 c 0.048,-1.16495 0.285,-1.4019 0.6042,-0.60417 0.2888,0.72187 0.2533,1.58438 -0.079,1.91667 -0.3323,0.33229 -0.5687,-0.25834 -0.5252,-1.3125 z m -324.99999,-1 c 0.048,-1.16495 0.28494,-1.4019 0.60416,-0.60417 0.28887,0.72187 0.25335,1.58438 -0.0789,1.91667 -0.3323,0.33229 -0.56864,-0.25834 -0.52522,-1.3125 z m 328.07899,-0.41667 c 0,-1.375 0.2269,-1.9375 0.5043,-1.25 0.2775,0.6875 0.2775,1.8125 0,2.5 -0.2774,0.6875 -0.5043,0.125 -0.5043,-1.25 z m -2.079,-2.58333 c 0.048,-1.16495 0.285,-1.4019 0.6042,-0.60417 0.2888,0.72187 0.2533,1.58438 -0.079,1.91667 -0.3323,0.33229 -0.5687,-0.25834 -0.5252,-1.3125 z m -326.99999,-1 c 0.048,-1.16495 0.28494,-1.4019 0.60416,-0.60417 0.28887,0.72187 0.25335,1.58438 -0.0789,1.91667 -0.3323,0.33229 -0.56864,-0.25834 -0.52522,-1.3125 z m 329.99999,-2 c 0.048,-1.16495 0.285,-1.4019 0.6042,-0.60417 0.2888,0.72187 0.2533,1.58438 -0.079,1.91667 -0.3323,0.33229 -0.5687,-0.25834 -0.5252,-1.3125 z m -2,-2 c 0.048,-1.16495 0.285,-1.4019 0.6042,-0.60417 0.2888,0.72187 0.2533,1.58438 -0.079,1.91667 -0.3323,0.33229 -0.5687,-0.25834 -0.5252,-1.3125 z m 3,-3 c 0.048,-1.16495 0.285,-1.4019 0.6042,-0.60417 0.2888,0.72187 0.2533,1.58438 -0.079,1.91667 -0.3323,0.33229 -0.5687,-0.25834 -0.5252,-1.3125 z m -332.99999,-1 c 0.048,-1.16495 0.28494,-1.4019 0.60416,-0.60417 0.28887,0.72187 0.25335,1.58438 -0.0789,1.91667 -0.3323,0.33229 -0.56864,-0.25834 -0.52522,-1.3125 z m -1,-4 c 0.048,-1.16495 0.28494,-1.4019 0.60416,-0.60417 0.28887,0.72187 0.25335,1.58438 -0.0789,1.91667 -0.3323,0.33229 -0.56864,-0.25834 -0.52522,-1.3125 z m 334.99999,0 c 0.048,-1.16495 0.285,-1.4019 0.6042,-0.60417 0.2888,0.72187 0.2533,1.58438 -0.079,1.91667 -0.3323,0.33229 -0.5687,-0.25834 -0.5252,-1.3125 z m -2,-1 c 0.048,-1.16495 0.285,-1.4019 0.6042,-0.60417 0.2888,0.72187 0.2533,1.58438 -0.079,1.91667 -0.3323,0.33229 -0.5687,-0.25834 -0.5252,-1.3125 z m 3,-4 c 0.048,-1.16495 0.285,-1.4019 0.6042,-0.60417 0.2888,0.72187 0.2533,1.58438 -0.079,1.91667 -0.3323,0.33229 -0.5687,-0.25834 -0.5252,-1.3125 z m -2,-1 c 0.048,-1.16495 0.285,-1.4019 0.6042,-0.60417 0.2888,0.72187 0.2533,1.58438 -0.079,1.91667 -0.3323,0.33229 -0.5687,-0.25834 -0.5252,-1.3125 z m 3,-3 c 0.048,-1.16495 0.285,-1.4019 0.6042,-0.60417 0.2888,0.72187 0.2533,1.58438 -0.079,1.91667 -0.3323,0.33229 -0.5687,-0.25834 -0.5252,-1.3125 z m -2,-1 c 0.048,-1.16495 0.285,-1.4019 0.6042,-0.60417 0.2888,0.72187 0.2533,1.58438 -0.079,1.91667 -0.3323,0.33229 -0.5687,-0.25834 -0.5252,-1.3125 z m -338.99999,-5 c 0.048,-1.16495 0.28494,-1.4019 0.60416,-0.60417 0.28887,0.72187 0.25335,1.58438 -0.0789,1.91667 -0.3323,0.33229 -0.56864,-0.25834 -0.52522,-1.3125 z m 340.99999,-4 c 0.048,-1.16495 0.285,-1.4019 0.6042,-0.60417 0.2888,0.72187 0.2533,1.58438 -0.079,1.91667 -0.3323,0.33229 -0.5687,-0.25834 -0.5252,-1.3125 z m 3,-3 c 0.048,-1.16495 0.285,-1.4019 0.6042,-0.60417 0.2888,0.72187 0.2533,1.58438 -0.079,1.91667 -0.3323,0.33229 -0.5687,-0.25834 -0.5252,-1.3125 z m -346.04831,0.0833 c 0,-0.55 0.43621,-1.675 0.96937,-2.5 0.53316,-0.825 0.96937,-1.05 0.96937,-0.5 0,0.55 -0.43621,1.675 -0.96937,2.5 -0.53316,0.825 -0.96937,1.05 -0.96937,0.5 z m 343.96941,0.14465 c 0,-2.52454 7.2885,-32.30195 8.4618,-34.5708 1.6998,-3.28717 3.5382,-4.07423 3.5382,-1.51483 0,0.91699 -0.4719,1.26738 -1.1459,0.85084 -0.8104,-0.50085 -0.945,0.0919 -0.4599,2.02478 0.4636,1.84717 0.3358,2.51657 -0.3942,2.06536 -0.7259,-0.44858 -0.8765,0.26203 -0.4592,2.16621 0.4947,2.25753 0.3888,2.52876 -0.5206,1.33379 -0.896,-1.17732 -1.0079,-0.74709 -0.5202,2 0.4824,2.71748 0.3706,3.16463 -0.5,2 -0.8707,-1.16463 -0.9825,-0.71748 -0.5,2 0.3878,2.1844 0.2845,3.01408 -0.2748,2.20728 -0.6028,-0.86969 -1.8105,2.15736 -3.6905,9.25 -1.5369,5.79849 -2.961,10.54272 -3.1646,10.54272 -0.2036,0 -0.3701,-0.15991 -0.3701,-0.35535 z m -344.96941,-3.14462 c 0,-0.55 0.43621,-1.675 0.96937,-2.5 0.53316,-0.825 0.96937,-1.05 0.96937,-0.5 0,0.55 -0.43621,1.675 -0.96937,2.5 -0.53316,0.825 -0.96937,1.05 -0.96937,0.5 z m 348.04831,-1.08333 c 0.048,-1.16495 0.285,-1.4019 0.6042,-0.60417 0.2888,0.72187 0.2533,1.58438 -0.079,1.91667 -0.3323,0.33229 -0.5687,-0.25834 -0.5252,-1.3125 z m -349.04831,-2.91667 c 0,-0.55 0.43621,-1.675 0.96937,-2.5 0.53316,-0.825 0.96937,-1.05 0.96937,-0.5 0,0.55 -0.43621,1.675 -0.96937,2.5 -0.53316,0.825 -0.96937,1.05 -0.96937,0.5 z m 350.04831,-1.08333 c 0.048,-1.16495 0.285,-1.4019 0.6042,-0.60417 0.2888,0.72187 0.2533,1.58438 -0.079,1.91667 -0.3323,0.33229 -0.5687,-0.25834 -0.5252,-1.3125 z m -351.06363,-2.60765 c -0.008,-0.93004 0.43469,-1.9691 0.98469,-2.30902 1.2656,-0.78218 1.2656,0.54163 0,2.5 -0.8354,1.29269 -0.97149,1.26629 -0.98469,-0.19098 z m 352.06363,-1.39235 c 0.048,-1.16495 0.285,-1.4019 0.6042,-0.60417 0.2888,0.72187 0.2533,1.58438 -0.079,1.91667 -0.3323,0.33229 -0.5687,-0.25834 -0.5252,-1.3125 z m -353.07894,-2.29864 c 0,-0.55 0.45,-1.27811 1,-1.61803 0.55,-0.33992 1,-0.16803 1,0.38197 0,0.55 -0.45,1.27811 -1,1.61803 -0.55,0.33992 -1,0.16803 -1,-0.38197 z m 361.07894,-0.70136 c 0.048,-1.16495 0.285,-1.4019 0.6042,-0.60417 0.2888,0.72187 0.2533,1.58438 -0.079,1.91667 -0.3323,0.33229 -0.5687,-0.25834 -0.5252,-1.3125 z m -7,-1 c 0.048,-1.16495 0.285,-1.4019 0.6042,-0.60417 0.2888,0.72187 0.2533,1.58438 -0.079,1.91667 -0.3323,0.33229 -0.5687,-0.25834 -0.5252,-1.3125 z m -355.06363,-1.60765 c -0.008,-0.93004 0.43469,-1.9691 0.98469,-2.30902 1.2656,-0.78218 1.2656,0.54163 0,2.5 -0.8354,1.29269 -0.97149,1.26629 -0.98469,-0.19098 z m -1.01531,-3.69099 c 0,-0.55 0.45,-1.27811 1,-1.61803 0.55,-0.33992 1,-0.16803 1,0.38197 0,0.55 -0.45,1.27811 -1,1.61803 -0.55,0.33992 -1,0.16803 -1,-0.38197 z m 194.5,-2.29597 c -1.1,-0.61441 -4.34293,-3.0938 -7.2065,-5.50975 l -5.2065,-4.39263 -2.7935,3.14069 c -3.59977,4.04718 -7.32079,5.93963 -11.67874,5.93963 -4.74818,0 -7.40415,-1.14665 -12.48138,-5.38857 -5.63612,-4.70884 -8.30087,-4.63353 -13.74921,0.38857 -5.9593,5.4931 -8.97925,5.39428 -15.28072,-0.5 -3.08723,-2.88775 -5.72022,-4.5 -7.349,-4.5 -1.60001,0 -4.38809,1.66327 -7.54323,4.5 -7.55688,6.79429 -9.7867,6.22375 -16.62736,-4.25444 -3.92611,-6.01382 -6.47114,-6.42532 -14.28036,-2.30896 -8.53275,4.49774 -9.73551,4.19921 -11.83159,-2.9366 -1.34698,-4.58557 -3.27822,-4.79352 -14.32696,-1.54265 -4.85868,1.42957 -9.54962,2.32459 -10.42432,1.98894 -0.87469,-0.33565 -2.40716,-2.59669 -3.40549,-5.02453 -0.99833,-2.42785 -2.36076,-4.41595 -3.02763,-4.41801 -0.66687,-0.002 -3.75794,0.94863 -6.86905,2.11264 -4.53324,1.69611 -5.8172,1.85648 -6.46546,0.80756 -1.16137,-1.87913 1.42599,-3.55073 9.547,-6.16798 6.15371,-1.98323 8.99483,-2.24772 23.5,-2.18772 19.05023,0.0788 32.65552,2.10944 57.81528,8.62913 32.06553,8.30918 31.42683,8.2017 48.68472,8.193 17.35277,-0.009 23.95246,-1.44976 30.90484,-6.74791 1.70234,-1.2973 5.46154,-3.55711 8.35379,-5.02181 4.93377,-2.49858 5.4394,-2.56961 8.18491,-1.14986 1.60945,0.83228 6.1319,2.06294 10.0499,2.7348 6.1397,1.05285 8.8072,0.96289 19.315,-0.65143 8.5091,-1.30725 20.951,-2.08131 41.1916,-2.56266 26.4825,-0.62981 29.4911,-0.87965 34.6581,-2.87807 8.0063,-3.0966 15.8103,-4.40774 27.3419,-4.59366 5.5,-0.0887 11.9475,-0.51238 14.3279,-0.94157 3.7394,-0.67422 4.6557,-0.47249 6.7375,1.4833 1.9832,1.86305 2.1906,2.53431 1.1721,3.79303 -1.0129,1.25176 -0.9826,1.37572 0.167,0.68291 0.9534,-0.57458 1.1753,-0.47564 0.691,0.30804 -1.1755,1.90194 -6.7527,1.29457 -12.4448,-1.35526 -9.4904,-4.41802 -14.5501,-2.66856 -10.1507,3.50977 2.4498,3.44044 2.061,6 -0.9114,6 -1.0858,0 -5.1447,-1.17518 -9.0197,-2.6115 -9.2444,-3.4266 -10.5249,-2.9163 -9.7433,3.88295 0.3306,2.8757 0.895,6.24105 1.2543,7.47855 1.0482,3.61013 -1.8187,2.82351 -11.845,-3.25 -4.9938,-3.025 -10.1897,-5.5 -11.5466,-5.5 -2.3712,0 -2.444,0.19323 -1.8773,4.97826 0.4413,3.72649 0.2069,5.3609 -0.9322,6.5 -0.8369,0.83696 -1.7441,1.52174 -2.016,1.52174 -1.2634,0 -5.3434,-2.74313 -10.6559,-7.16427 -9.0178,-7.50461 -13.0413,-6.46291 -16.4779,4.26615 -2.3524,7.34417 -4.8106,7.63771 -12.0699,1.4413 -7.661,-6.53937 -10.943,-5.92754 -14.5076,2.70458 -1.8614,4.50763 -5.0946,6.29467 -8.8237,4.8769 -1.4385,-0.54692 -5.533,-3.7237 -9.0991,-7.05953 -3.566,-3.33582 -7.1883,-6.06513 -8.0497,-6.06513 -0.8614,0 -3.054,1.85089 -4.87258,4.1131 -8.52433,10.6039 -9.95073,11.88776 -13.17282,11.85649 -1.7235,-0.0167 -4.03364,-0.53311 -5.13364,-1.14753 z m -195.5,-1.26304 c 0,-0.85746 0.45,-1.55902 1,-1.55902 0.55,0 1,0.42344 1,0.94098 0,0.51754 -0.45,1.2191 -1,1.55902 -0.55,0.33992 -1,-0.0835 -1,-0.94098 z m -1,-3.55902 c 0,-0.55 0.47656,-1 1.05902,-1 0.58246,0 0.7809,0.45 0.44098,1 -0.33992,0.55 -0.81648,1 -1.05902,1 -0.24254,0 -0.44098,-0.45 -0.44098,-1 z m -1.82474,-6.63453 c -1.68034,-6.28261 -0.92981,-6.53126 1.04779,-0.34713 0.87619,2.73991 1.27778,4.98166 0.89242,4.98166 -0.38536,0 -1.25846,-2.08554 -1.94021,-4.63453 z m 13.82474,3.69355 c 0,-0.51754 0.44485,-1.21592 0.98855,-1.55194 0.56686,-0.35034 0.7345,0.0511 0.39301,0.94098 -0.66479,1.73242 -1.38156,2.04939 -1.38156,0.61096 z m 5.75,-26.7213 c 0.6875,-0.27741 1.8125,-0.27741 2.5,0 0.6875,0.27741 0.125,0.50439 -1.25,0.50439 -1.375,0 -1.9375,-0.22698 -1.25,-0.50439 z m -16.98209,-4.06245 c 1.79735,-0.22256 4.49735,-0.21797 6,0.0102 1.50265,0.22818 0.0321,0.41027 -3.26791,0.40466 -3.3,-0.006 -4.52944,-0.1923 -2.73209,-0.41486 z m -3.4819,-5.77527 c 0.008,-2.75 0.20172,-3.75631 0.43157,-2.23625 0.22986,1.52006 0.22371,3.77006 -0.0136,5 -0.23736,1.22994 -0.42542,-0.0138 -0.41792,-2.76375 z M 291.77041,574.4437 c 0.9625,-0.25152 2.5375,-0.25152 3.5,0 0.9625,0.25153 0.175,0.45733 -1.75,0.45733 -1.925,0 -2.7125,-0.2058 -1.75,-0.45733 z M 394.39285,237.38303 c -1.24387,-1.58606 -1.2085,-1.62143 0.37756,-0.37756 1.66575,1.30637 2.19548,2.12756 1.37244,2.12756 -0.20765,0 -0.99515,-0.7875 -1.75,-1.75 z"
         id="path3128"
         inkscape:connector-curvature="0" />
      <path
         style="fill:#ed8a77"
         d="m 466.78944,805.44004 c 0.97297,-0.25354 2.32297,-0.23687 3,0.0371 0.67703,0.27393 -0.11903,0.48137 -1.76903,0.46099 -1.65,-0.0204 -2.20394,-0.2445 -1.23097,-0.49804 z m 32.98097,0.004 c 0.9625,-0.25152 2.5375,-0.25152 3.5,0 0.9625,0.25153 0.175,0.45733 -1.75,0.45733 -1.925,0 -2.7125,-0.2058 -1.75,-0.45733 z m -29.4375,-10.99378 c 0.72187,-0.28887 1.58438,-0.25335 1.91667,0.0789 0.33229,0.33229 -0.25834,0.56864 -1.3125,0.52522 -1.16495,-0.048 -1.4019,-0.28494 -0.60417,-0.60416 z m 27.45653,-0.01 c 0.97297,-0.25354 2.32297,-0.23687 3,0.0371 0.67703,0.27393 -0.11903,0.48137 -1.76903,0.46099 -1.65,-0.0204 -2.20394,-0.2445 -1.23097,-0.49804 z m 16.54347,-0.99012 c 0.72187,-0.28887 1.58438,-0.25335 1.91667,0.0789 0.33229,0.33229 -0.25834,0.56864 -1.3125,0.52522 -1.16495,-0.048 -1.4019,-0.28494 -0.60417,-0.60416 z m -27.54347,-178.0101 c 0.97297,-0.25354 2.32297,-0.23687 3,0.0371 0.67703,0.27393 -0.11903,0.48137 -1.76903,0.46099 -1.65,-0.0204 -2.20394,-0.2445 -1.23097,-0.49804 z m 10.48097,0.0307 c 0.6875,-0.27741 1.8125,-0.27741 2.5,0 0.6875,0.27741 0.125,0.50439 -1.25,0.50439 -1.375,0 -1.9375,-0.22698 -1.25,-0.50439 z m 42.93964,-7.39287 c -3.7457,-0.4352 -8.1849,-1.27044 -9.8648,-1.85608 -1.68004,-0.58565 -3.45289,-0.81865 -3.93971,-0.51778 -0.48682,0.30089 -0.88513,0.10502 -0.88513,-0.43524 0,-1.47428 -19.37097,-10.61239 -28.5,-13.44465 -4.4,-1.3651 -12.86564,-3.46296 -18.81253,-4.66191 -13.29963,-2.68135 -16.58923,-3.81691 -39.18747,-13.52737 -23.76002,-10.20968 -41.75642,-16.14917 -54.60689,-18.02232 -19.25106,-2.80615 -25.69714,-4.2838 -32.17566,-7.37571 -7.77347,-3.70994 -14.21523,-9.7142 -16.87642,-15.73024 l -1.96363,-4.43913 2.49802,-2.96873 c 1.37392,-1.6328 7.10674,-8.15715 12.7396,-14.49855 l 10.24158,-11.52981 3.03729,5.66038 c 7.1111,13.25245 32.12274,27.08841 77.10611,42.65362 34.21586,11.83942 53.35357,20.65943 75.36509,34.73358 7.90081,5.05177 16.22585,9.88072 18.50005,10.731 3.0669,1.1467 10.7207,1.7563 29.6349,2.36034 22.8214,0.72883 38.4131,2.00353 39.6512,3.24171 1.1332,1.13313 -29.6534,8.2383 -39.6512,9.15103 -13.1228,1.19801 -15.634,1.25157 -22.3104,0.47587 z m 91.0783,-4.66958 c 1.7973,-0.22256 4.4973,-0.21797 6,0.0102 1.5026,0.22818 0.032,0.41027 -3.2679,0.40466 -3.3,-0.006 -4.5295,-0.1923 -2.7321,-0.41486 z m -25.9554,-4.95838 c 0.7218,-0.28887 1.5843,-0.25335 1.9166,0.0789 0.3323,0.33229 -0.2583,0.56864 -1.3125,0.52522 -1.1649,-0.048 -1.4019,-0.28494 -0.6041,-0.60416 z m -253.81254,-0.70025 c 0,-0.21085 0.90062,-0.61888 2.00138,-0.90674 1.10076,-0.28785 1.7492,-0.11534 1.44098,0.38337 -0.53825,0.87091 -3.44236,1.31244 -3.44236,0.52337 z m -40.59501,-20.86663 -1.90499,-2.25 2.25,1.90499 c 2.11444,1.79022 2.70524,2.59501 1.90499,2.59501 -0.18976,0 -1.20226,-1.0125 -2.25,-2.25 z m 8,-3 -1.90499,-2.25 2.25,1.90499 c 2.11444,1.79022 2.70524,2.59501 1.90499,2.59501 -0.18976,0 -1.20226,-1.0125 -2.25,-2.25 z m 380.34505,1.58772 c 0.6875,-0.27741 1.8125,-0.27741 2.5,0 0.6875,0.27741 0.125,0.50439 -1.25,0.50439 -1.375,0 -1.9375,-0.22698 -1.25,-0.50439 z m -320.93754,-1.02083 c 0.72187,-0.28887 1.58437,-0.25335 1.91667,0.0789 0.33229,0.33229 -0.25834,0.56864 -1.3125,0.52522 -1.16495,-0.048 -1.4019,-0.28494 -0.60417,-0.60416 z m -4,-1 c 0.72187,-0.28887 1.58437,-0.25335 1.91667,0.0789 0.33229,0.33229 -0.25834,0.56864 -1.3125,0.52522 -1.16495,-0.048 -1.4019,-0.28494 -0.60417,-0.60416 z m -62.40751,-5.56689 -1.90499,-2.25 2.25,1.90499 c 2.11444,1.79022 2.70524,2.59501 1.90499,2.59501 -0.18976,0 -1.20226,-1.0125 -2.25,-2.25 z m -11.53255,-1.5 c -1.24387,-1.58606 -1.2085,-1.62143 0.37756,-0.37756 0.9625,0.75485 1.75,1.54235 1.75,1.75 0,0.82304 -0.82119,0.29331 -2.12756,-1.37244 z m 55.12756,0.75 c -0.825,-0.53316 -1.05,-0.96937 -0.5,-0.96937 0.55,0 1.675,0.43621 2.5,0.96937 0.825,0.53316 1.05,0.96937 0.5,0.96937 -0.55,0 -1.675,-0.43621 -2.5,-0.96937 z m -49.59501,-6.25 -1.90499,-2.25 2.25,1.90499 c 2.11444,1.79022 2.70524,2.59501 1.90499,2.59501 -0.18976,0 -1.20226,-1.0125 -2.25,-2.25 z m 39.03614,0.69483 c -1.86402,-1.49339 -1.85176,-1.51185 0.30887,-0.46481 1.2375,0.59969 2.25,1.29951 2.25,1.55516 0,0.76522 -0.51861,0.54424 -2.55887,-1.09035 z m 361.75381,-4.94483 c 0.02,-1.65 0.2445,-2.20394 0.4981,-1.23097 0.2535,0.97297 0.2368,2.32297 -0.037,3 -0.274,0.67703 -0.4814,-0.11903 -0.461,-1.76903 z m -372.3225,-2.25 c -1.24387,-1.58606 -1.2085,-1.62143 0.37756,-0.37756 0.9625,0.75485 1.75,1.54235 1.75,1.75 0,0.82304 -0.82119,0.29331 -2.12756,-1.37244 z m 349.0635,-0.25813 c -2.5103,-0.42509 -7.1573,-1.31123 -10.3267,-1.96919 l -5.7625,-1.19629 3.3266,-2.41812 c 1.8297,-1.32997 4.2821,-3.5892 5.4498,-5.02052 1.7607,-2.15813 2.647,-2.48732 5.1921,-1.92833 4.0003,0.8786 11.0498,6.01648 12.1168,8.83104 1.6599,4.37862 -0.7429,5.26836 -9.9961,3.70141 z m -356.47353,-6.24187 -4.96241,-5.25 5.25,4.96241 c 4.87839,4.61116 5.7086,5.53759 4.96241,5.53759 -0.15818,0 -2.52068,-2.3625 -5.25,-5.25 z m -6.58997,-7.5 c -1.24387,-1.58606 -1.2085,-1.62143 0.37756,-0.37756 1.66575,1.30637 2.19548,2.12756 1.37244,2.12756 -0.20765,0 -0.99515,-0.7875 -1.75,-1.75 z m -24.71455,-1.25 c 0,-1.375 0.22698,-1.9375 0.50439,-1.25 0.27741,0.6875 0.27741,1.8125 0,2.5 -0.27741,0.6875 -0.50439,0.125 -0.50439,-1.25 z m -8.84802,-6.5 c 0.006,-3.3 0.1923,-4.52944 0.41486,-2.73209 0.22256,1.79735 0.21797,4.49735 -0.0102,6 -0.22817,1.50265 -0.41027,0.0321 -0.40466,-3.26791 z m 30.69013,3.5 c -0.5887,-1.1 -0.84537,-2 -0.57037,-2 0.275,0 0.98167,0.9 1.57037,2 0.5887,1.1 0.84537,2 0.57037,2 -0.275,0 -0.98167,-0.9 -1.57037,-2 z m -35.71399,-3.5 c 0.008,-2.75 0.20172,-3.75631 0.43157,-2.23625 0.22986,1.52006 0.22371,3.77006 -0.0137,5 -0.23736,1.22994 -0.42542,-0.0138 -0.41792,-2.76375 z m 13.79294,-3.08333 c 0.048,-1.16495 0.28494,-1.4019 0.60416,-0.60417 0.28887,0.72187 0.25335,1.58438 -0.0789,1.91667 -0.3323,0.33229 -0.56864,-0.25834 -0.52522,-1.3125 z m 18.54459,0.0447 c -0.96498,-2.51469 -0.68031,-3.16355 0.49853,-1.13634 0.58369,1.00375 0.8506,2.03566 0.59313,2.29313 -0.25747,0.25747 -0.74872,-0.26309 -1.09166,-1.15679 z m 171.13812,-1.1686 c 1.24391,-0.23919 3.04391,-0.23011 4,0.0202 0.95609,0.25029 -0.0617,0.446 -2.26166,0.4349 -2.2,-0.0111 -2.98225,-0.21589 -1.73834,-0.45508 z m 29.23834,0.32381 c 0,-0.21089 1.125,-0.59848 2.5,-0.86133 1.375,-0.26285 2.5,-0.0903 2.5,0.38342 0,0.47373 -1.125,0.86133 -2.5,0.86133 -1.375,0 -2.5,-0.17254 -2.5,-0.38342 z m -72,-2.10616 c -10.0581,-1.72267 -18.214,-3.91875 -29.82309,-8.03026 -5.3223,-1.88496 -13.71016,-4.58989 -18.63968,-6.01096 -18.23401,-5.25644 -31.70046,-14.97779 -35.08595,-25.32835 -2.49527,-7.62886 -1.60909,-17.0695 2.40811,-25.65408 1.72734,-3.69122 3.14061,-6.85728 3.14061,-7.03569 0,-0.1784 -1.4625,-0.50586 -3.25,-0.72768 -2.97341,-0.369 -2.90666,-0.41695 0.78439,-0.56336 3.28376,-0.13026 4.34614,-0.68778 5.70991,-2.99646 7.92465,-13.41537 23.51839,-25.41811 36.69372,-28.24371 6.16312,-1.32175 13.72865,-0.48353 13.72865,1.52107 0,0.75261 -0.53787,1.16198 -1.19526,0.90972 -0.65739,-0.25227 -3.92437,2.51968 -7.25996,6.15989 -12.13576,13.24404 -20.79562,37.00428 -18.08814,49.62881 0.85664,3.99439 1.9123,5.62598 5.71374,8.83098 16.91465,14.26078 20.72205,17.23552 27.30751,21.33545 4.04549,2.51862 10.60651,5.96079 14.58003,7.64927 7.71368,3.27779 24.30241,8.03824 28.02541,8.04242 1.2375,0.001 2.25,0.45252 2.25,1.00252 0,1.40695 -17.81258,1.08396 -27,-0.48958 z m 32.8125,0.80647 c 0.72187,-0.28887 1.58438,-0.25335 1.91667,0.0789 0.33229,0.33229 -0.25834,0.56864 -1.3125,0.52522 -1.16495,-0.048 -1.4019,-0.28494 -0.60417,-0.60416 z m 39.05994,-3.06689 c -1.24387,-1.58606 -1.2085,-1.62143 0.37756,-0.37756 1.66575,1.30637 2.19548,2.12756 1.37244,2.12756 -0.20765,0 -0.99515,-0.7875 -1.75,-1.75 z m -181.67749,-1.75 c 0.0204,-1.65 0.2445,-2.20394 0.49804,-1.23097 0.25354,0.97297 0.23687,2.32297 -0.0371,3 -0.27393,0.67703 -0.48137,-0.11903 -0.46099,-1.76903 z m -21.116,-1.08333 c 0.048,-1.16495 0.28494,-1.4019 0.60416,-0.60417 0.28887,0.72187 0.25335,1.58438 -0.0789,1.91667 -0.3323,0.33229 -0.56864,-0.25834 -0.52522,-1.3125 z m 269.42109,-1.37165 c -13.5512,-2.93281 -93.09821,-27.75871 -107.62089,-33.58748 -10.50927,-4.21796 -25.20511,-11.47216 -27.24297,-13.44776 -0.4751,-0.46058 1.7749,-1.13059 5,-1.48889 12.28221,-1.36456 29.75567,-4.58533 36.66981,-6.75911 5.96166,-1.87433 9.42094,-2.25649 20.19401,-2.2309 11.57826,0.0275 13.87492,0.33457 21,2.80776 10.41164,3.61399 19.00174,8.70872 35.28114,20.92502 24.8596,18.655 38.6477,24.72856 66.7189,29.38906 l 4,0.6641 -7.5,1.91304 c -8.4219,2.1482 -39.3778,3.35658 -46.5,1.81516 z m -270.33194,-8.48211 -0.1681,-6.93709 -3.25,2.93499 c -3.18141,2.87306 -3.17613,2.8545 0.25,-0.8794 l 3.5,-3.81439 0.30879,4.09292 c 0.16983,2.25111 0.13298,5.76853 -0.0819,7.81649 -0.2264,2.15785 -0.46137,0.80661 -0.55879,-3.21352 z m 362.26904,-6.81291 -2.9371,-3.25 3.25,2.93709 c 1.7875,1.6154 3.25,3.0779 3.25,3.25 0,0.77256 -0.8252,0.0924 -3.5629,-2.93709 z m -340.24219,-4.25 c 0.0204,-1.65 0.2445,-2.20394 0.49804,-1.23097 0.25354,0.97297 0.23687,2.32297 -0.0371,3 -0.27393,0.67703 -0.48137,-0.11903 -0.46099,-1.76903 z m -28.19495,-5 c 2.98742,-3.025 5.65668,-5.5 5.93168,-5.5 0.275,0 -1.94426,2.475 -4.93168,5.5 -2.98742,3.025 -5.65668,5.5 -5.93168,5.5 -0.275,0 1.94426,-2.475 4.93168,-5.5 z m 55.07895,0.91667 c 0.048,-1.16495 0.28494,-1.4019 0.60416,-0.60417 0.28887,0.72187 0.25335,1.58438 -0.0789,1.91667 -0.3323,0.33229 -0.56864,-0.25834 -0.52522,-1.3125 z m -38.07895,-23.79423 c 0,-0.20765 0.7875,-0.99515 1.75,-1.75 1.58606,-1.24387 1.62143,-1.2085 0.37756,0.37756 -1.30637,1.66575 -2.12756,2.19548 -2.12756,1.37244 z m 96.45295,-3.87244 -3.95295,-4.25 4.25,3.95295 c 3.95246,3.6762 4.70953,4.54705 3.95295,4.54705 -0.16338,0 -2.07588,-1.9125 -4.25,-4.25 z m -70.95295,-2.75 c 0.99549,-1.1 2.03498,-2 2.30998,-2 0.275,0 -0.31449,0.9 -1.30998,2 -0.99549,1.1 -2.03498,2 -2.30998,2 -0.275,0 0.31449,-0.9 1.30998,-2 z m -17.5,-1.37756 c 0,-0.20765 0.7875,-0.99515 1.75,-1.75 1.58606,-1.24387 1.62143,-1.2085 0.37756,0.37756 -1.30637,1.66575 -2.12756,2.19548 -2.12756,1.37244 z m 21.8125,-10.30555 c 0.72187,-0.28887 1.58437,-0.25335 1.91667,0.0789 0.33229,0.33229 -0.25834,0.56864 -1.3125,0.52522 -1.16495,-0.048 -1.4019,-0.28494 -0.60417,-0.60416 z m 59.45986,-3.31689 c 0,-2.475 0.19502,-3.4875 0.43337,-2.25 0.23836,1.2375 0.23836,3.2625 0,4.5 -0.23835,1.2375 -0.43337,0.225 -0.43337,-2.25 z m 99.60008,-5.75 c -1.24387,-1.58606 -1.2085,-1.62143 0.37756,-0.37756 1.66575,1.30637 2.19548,2.12756 1.37244,2.12756 -0.20765,0 -0.99515,-0.7875 -1.75,-1.75 z m 64.6276,-5.25 c -1.1,-0.47269 -3.5972,-0.89106 -5.5492,-0.92971 -3.457,-0.0685 -3.5386,-0.16126 -3.1406,-3.57029 0.4697,-4.02352 0.37,-3.97526 4.1606,-2.01509 2.2223,1.14922 8.3099,7.76798 6.8473,7.4448 -0.175,-0.0386 -1.2181,-0.45702 -2.3181,-0.92971 z m -9.4211,-19.58333 c 0.048,-1.16495 0.285,-1.4019 0.6042,-0.60417 0.2888,0.72187 0.2533,1.58438 -0.079,1.91667 -0.3323,0.33229 -0.5687,-0.25834 -0.5252,-1.3125 z m -158.26644,-4.09978 c 0.72187,-0.28887 1.58437,-0.25335 1.91667,0.0789 0.33229,0.33229 -0.25834,0.56864 -1.3125,0.52522 -1.16495,-0.048 -1.4019,-0.28494 -0.60417,-0.60416 z"
         id="path3126"
         inkscape:connector-curvature="0" />
      <path
         style="fill:#d6584e"
         d="m 482.02041,620.0133 c -6.69438,-1.53774 -19.36842,-5.94307 -31.87629,-11.07978 l -11.8763,-4.87733 -5.1237,1.78842 c -6.92227,2.4162 -27.43961,2.33527 -40.62371,-0.16025 -5.225,-0.989 -17.375,-2.11633 -27,-2.50518 -15.30983,-0.61853 -18.50122,-1.04834 -25.5,-3.43435 -25.66841,-8.75079 -49.52281,-31.59229 -55.91767,-53.5433 -3.38154,-11.60748 -1.49387,-27.14513 4.58349,-37.72725 3.67057,-6.39133 11.60762,-15.96533 16.92949,-20.42105 3.45438,-2.89217 6.13129,-6.40582 8.57052,-11.24949 8.08421,-16.05309 26.42921,-27.59317 43.96402,-27.65593 3.8258,-0.0137 4.43332,-0.41671 8.25165,-5.47405 12.14571,-16.08688 25.81036,-24.79002 42.44764,-27.0353 4.60535,-0.62151 4.81388,-0.54659 4.5,1.61681 -0.28276,1.94888 -1.27559,2.4426 -7.04625,3.50399 -14.35122,2.63963 -30.12698,14.29763 -38.47776,28.43437 -1.46016,2.47186 -2.34149,2.79994 -9.2099,3.42845 -8.51345,0.77905 -17.45515,3.46549 -23.68325,7.1154 -6.19337,3.62956 -14.12196,12.55368 -17.44642,19.63702 -2.14336,4.56681 -4.71095,7.84105 -9.49883,12.11308 -7.68953,6.86106 -15.50254,17.56547 -18.62097,25.51214 -3.09191,7.87906 -3.10593,21.2255 -0.0311,29.63331 7.55685,20.66372 33.52318,42.62546 57.82972,48.91108 10.81802,2.79752 11.56446,1.93605 2.5268,-2.91619 -31.85981,-17.10522 -49.46766,-35.01201 -53.18238,-54.08529 -0.99589,-5.11341 -0.92708,-7.10174 0.42894,-12.39483 1.99423,-7.78422 5.73411,-14.80034 10.1927,-19.12177 l 3.3896,-3.28533 0,5.98606 c 0,17.32301 9.97766,34.25027 27.17222,46.09811 12.30278,8.47719 20.51255,12.14166 40.02908,17.86721 13.51623,3.96525 20.62199,6.72584 55.2987,21.48352 33.43039,14.22727 47.19806,19.01473 56.60392,19.68297 9.92825,0.70535 20.20676,-1.57764 30.26773,-6.72287 6.36627,-3.25575 8.12307,-3.76508 10.22725,-2.96507 11.8296,4.49762 42.6594,1.7381 67.7264,-6.06207 5.8192,-1.81079 5.8358,-1.81001 16,0.75637 13.7194,3.46406 27.6164,3.60636 35.9214,0.36783 6.4728,-2.52409 15.8301,-10.45679 17.7218,-15.02367 0.9828,-2.3727 2.4257,-3.36329 7.2937,-5.00722 7.5552,-2.55145 17.3878,-8.88058 22.6279,-14.56539 4.5517,-4.93809 5.983,-9.98148 4.1134,-14.49499 -1.6865,-4.07155 -8.8847,-10.48149 -15.3084,-13.63196 l -5.35,-2.6239 0.4488,-7.75293 c 0.6293,-10.87181 -1.5069,-16.91641 -8.3342,-23.582 -3.266,-3.18861 -7.6937,-6.17254 -11.8385,-7.97821 -3.6417,-1.58648 -6.6212,-3.3888 -6.6212,-4.00515 0,-1.82943 -9.3769,-14.55065 -14.6287,-19.84611 -5.485,-5.53056 -10.9171,-8.30945 -18.0307,-9.22383 -2.6624,-0.34222 -6.4136,-1.5767 -8.336,-2.74329 -1.9225,-1.1666 -5.0725,-2.90607 -7,-3.8655 -1.9276,-0.95944 -6.6546,-3.99214 -10.5046,-6.73935 -3.85,-2.7472 -9.6154,-6.01221 -12.8119,-7.25557 -3.6023,-1.40115 -6.7158,-3.4406 -8.1892,-5.36412 -1.3074,-1.70691 -3.7546,-3.674 -5.4381,-4.37132 -2.4009,-0.99452 -3.0608,-1.88172 -3.0608,-4.11516 0,-2.29097 0.3419,-2.72116 1.75,-2.20173 3.4785,1.28318 9.275,5.36027 10.4989,7.38464 0.6881,1.13806 4.0903,3.36663 7.5605,4.95236 3.4702,1.58573 9.3028,4.97566 12.9614,7.53318 9.9421,6.95001 20.1308,12.03229 25.5855,12.76237 6.7699,0.90614 13.8831,5.07031 20.0628,11.74517 4.3565,4.70551 12.4147,15.63849 13.7403,18.64231 0.1873,0.4244 3.3701,2.27911 7.0729,4.12158 13.5762,6.75547 19.8836,16.35759 20.3316,30.95236 l 0.2596,8.45791 5.3382,2.91796 c 10.2736,5.61567 14.8383,11.93041 14.8383,20.52718 0,5.22231 -3.268,11.63196 -8.1091,15.90496 -4.9413,4.36134 -16.0566,11.28582 -20.6388,12.85725 -3.7217,1.27633 -5.5111,2.71247 -8.2521,6.62299 -4.2093,6.00511 -13.1913,12.30123 -20.8778,14.63458 -8.3311,2.52906 -22.3649,2.27122 -34.1222,-0.62691 l -9.5,-2.34169 -14.3746,3.62754 c -25.0913,6.332 -46.5675,7.99744 -59.2144,4.59197 -3.18444,-0.85747 -4.55138,-0.55005 -11.18772,2.51613 -12.94096,5.97909 -27.01421,7.96291 -38.22332,5.3881 z m 5,-91.54051 c -27.1066,-2.19589 -45.42583,-7.49404 -62.35544,-18.03397 -6.58546,-4.09993 -10.39286,-7.07467 -27.30751,-21.33545 -3.80144,-3.205 -4.8571,-4.83659 -5.71374,-8.83098 -2.64088,-12.31397 5.88778,-36.18058 17.5239,-49.0389 8.52674,-9.42236 9.7107,-9.57649 6.3189,-0.8226 -3.56787,9.2083 -5.31719,18.89532 -4.45293,24.65857 1.76355,11.76025 7.90276,17.3687 31.48682,28.76469 44.16774,21.34217 51.73797,25.56202 69.12725,38.53348 6.43821,4.80255 6.84207,5.30953 4.70756,5.90963 -2.35863,0.66311 -21.95088,0.79369 -29.33481,0.19553 z M 333.0016,519.77212 c -1.37777,-14.69646 1.20317,-31.10887 6.56118,-41.72302 4.91886,-9.74421 13.69504,-17.99069 21.679,-20.37053 l 2.22136,-0.66214 -2.61604,5.71419 c -3.4492,7.53404 -4.21541,17.38911 -1.9019,24.46226 2.5529,7.80505 1.62089,9.97432 -9.80386,22.8187 -5.56651,6.2582 -11.30935,12.7832 -12.76186,14.5 l -2.64094,3.12145 -0.73694,-7.86091 z m 180.9238,-70.88909 -1.90499,-2.25 2.25,1.90499 c 2.11444,1.79022 2.70524,2.59501 1.90499,2.59501 -0.18976,0 -1.20226,-1.0125 -2.25,-2.25 z m -7,-7 -1.90499,-2.25 2.25,1.90499 c 2.11444,1.79022 2.70524,2.59501 1.90499,2.59501 -0.18976,0 -1.20226,-1.0125 -2.25,-2.25 z m 58.78995,-6.25 c 0.02,-1.65 0.2445,-2.20394 0.4981,-1.23097 0.2535,0.97297 0.2368,2.32297 -0.037,3 -0.274,0.67703 -0.4814,-0.11903 -0.461,-1.76903 z m -0.116,-12.08333 c 0.048,-1.16495 0.285,-1.4019 0.6042,-0.60417 0.2888,0.72187 0.2533,1.58438 -0.079,1.91667 -0.3323,0.33229 -0.5687,-0.25834 -0.5252,-1.3125 z m -151.07894,-1.80317 c 0,-0.21258 1.32623,-0.58115 2.94719,-0.81906 1.62095,-0.2379 2.71939,-0.064 2.44098,0.3865 -0.49551,0.80176 -5.38817,1.19454 -5.38817,0.43256 z m 23.76166,-10.32076 c 1.24391,-0.23919 3.04391,-0.23011 4,0.0202 0.95609,0.25029 -0.0617,0.446 -2.26166,0.4349 -2.2,-0.0111 -2.98225,-0.21589 -1.73834,-0.45508 z m 13.05084,-31.97585 c 0.72187,-0.28887 1.58438,-0.25335 1.91667,0.0789 0.33229,0.33229 -0.25834,0.56864 -1.3125,0.52522 -1.16495,-0.048 -1.4019,-0.28494 -0.60417,-0.60416 z"
         id="path3124"
         inkscape:connector-curvature="0" />
      <path
         style="fill:#ad7238"
         d="m 459.70197,805.15494 c -48.13842,-3.55033 -87.85584,-17.01043 -109.75372,-37.19519 -6.60135,-6.08491 -8.62919,-10.15066 -16.93847,-33.96111 -6.72879,-19.28152 -38.56655,-116.24469 -41.56789,-126.59666 -0.72627,-2.50499 -1.98034,-4.47024 -3.07409,-4.81739 -2.08487,-0.66171 -2.29704,-2.13868 -0.85289,-5.93709 0.78237,-2.05779 0.55284,-3.48143 -1.07607,-6.67435 -1.73492,-3.40073 -1.88369,-4.50978 -0.91776,-6.84173 0.84155,-2.03168 0.86359,-3.82461 0.0816,-6.64074 -1.60084,-5.76524 -1.41128,-6.35765 2.03432,-6.35765 2.60485,0 3.03233,-0.32238 2.60324,-1.96323 -0.28237,-1.07978 0.0468,-2.42819 0.73157,-2.99647 1.67077,-1.38662 4.07973,1.42828 4.8863,5.7097 0.59594,3.16339 0.51914,3.25 -2.88179,3.25 -3.30496,0 -3.45835,0.14882 -2.83433,2.75 0.36286,1.5125 0.78468,2.90076 0.9374,3.08501 0.15272,0.18426 -0.17977,1.64721 -0.73885,3.25101 -0.83244,2.38795 -0.6277,3.57502 1.13062,6.55515 1.65823,2.81049 1.94087,4.23341 1.24124,6.24898 -0.91678,2.64117 -0.81725,2.88475 2.83428,6.93616 1.00448,1.11448 5.25352,13.64698 9.44233,27.85 8.15482,27.65063 19.86444,64.60998 24.73564,78.07369 3.06017,8.45814 4.79572,10.42178 4.79572,5.42599 0,-2.85873 -5.81644,-27.17083 -10.44906,-43.67599 -4.62677,-16.48431 -2.53471,-11.27439 6.82641,17 13.81508,41.72715 19.50676,54.92573 22.80645,52.88641 0.69073,-0.4269 0.83254,-2.98061 0.40381,-7.27218 l -0.66076,-6.61423 2.38482,3.5 c 1.31165,1.925 3.6408,7.325 5.17589,12 4.91335,14.9632 9.23378,21.6296 11.59805,17.89572 0.48607,-0.76765 0.89066,-2.95191 0.89908,-4.85393 l 0.0153,-3.45821 4.56326,4.45821 c 2.50979,2.45202 5.99729,7.13148 7.75,10.39881 3.46421,6.45786 5.50893,7.95534 6.36944,4.66476 0.30281,-1.15795 0.75691,-2.10536 1.0091,-2.10536 2.08085,0 14.6971,8.85136 15.88188,11.14248 1.59798,3.09016 3.17668,3.67163 4.01776,1.47983 0.41999,-1.09448 1.90386,-0.80002 7.21861,1.43251 8.66487,3.63978 21.84729,7.43872 33.45418,9.64089 12.70457,2.41044 51.27415,2.38025 71.73577,-0.0562 39.28979,-4.6783 74.51779,-15.13605 97.00009,-28.79538 4.675,-2.84033 9.2299,-5.12453 10.1221,-5.07599 0.8922,0.0485 2.1234,-0.89194 2.7359,-2.08997 0.6124,-1.19802 2.078,-3.37584 3.2569,-4.83959 1.1787,-1.46375 3.6716,-6.86375 5.5396,-12 3.2843,-9.03032 3.378,-9.1653 2.8365,-4.08863 -0.6564,6.15448 0.8973,7.10028 2.4641,1.5 0.577,-2.0625 3.7827,-15.9 7.1237,-30.75 6.7878,-30.17071 10.1376,-43.83818 12.3772,-50.5 1.8884,-5.61744 1.2674,-2.37435 -3.0636,16 -6.0888,25.83142 -8.5894,42 -6.4957,42 1.4398,0 9.531,-26.44641 21.5692,-70.5 3.607,-13.2 7.2242,-25.18835 8.0382,-26.64077 0.8139,-1.45242 1.596,-4.37742 1.7379,-6.5 0.1419,-2.12258 0.9892,-4.53423 1.8829,-5.35923 0.8937,-0.825 2.2016,-3.67995 2.9064,-6.34434 1.3055,-4.93558 1.0218,-5.72877 -2.4893,-6.95871 -0.5288,-0.18525 0.016,-2.88026 1.216,-6.01626 2.1343,-5.57738 2.1381,-5.68069 0.2079,-5.68069 -2.6339,0 -2.4959,-2.51541 0.2433,-4.43403 1.4591,-1.02196 2.5457,-1.21101 3.2,-0.5567 0.5449,0.54495 1.8008,0.99078 2.7908,0.99078 2.2641,0 2.2759,-0.13164 -0.6307,7.02177 l -2.4308,5.98202 2.1808,1.13356 c 1.1993,0.62346 2.2767,1.2061 2.394,1.29477 0.1173,0.0887 -0.4714,2.39021 -1.3084,5.11454 -2.2201,7.22673 -48.4049,167.43544 -48.4049,167.90995 0,1.12125 -16.4058,10.3931 -25.7953,14.57843 -27.9833,12.47334 -60.0326,20.43561 -98.28398,24.41742 -18.00797,1.87456 -53.58766,2.68691 -68.73924,1.56945 z M 339.207,674.83283 c -1.47256,-5.09825 -4.93554,-16.45094 -7.69552,-25.2282 -2.75998,-8.77726 -4.80118,-16.52407 -4.53599,-17.21513 0.7118,-1.85492 3.33022,-1.52602 3.92906,0.49353 1.30422,4.39836 11.55331,50.64588 11.2836,50.91559 -0.16707,0.16707 -1.50859,-3.86753 -2.98115,-8.96579 z M 319.59936,654.5497 c 0.048,-1.16495 0.28494,-1.4019 0.60416,-0.60417 0.28887,0.72187 0.25335,1.58438 -0.0789,1.91667 -0.3323,0.33229 -0.56864,-0.25834 -0.52522,-1.3125 z m 350.99999,-5 c 0.048,-1.16495 0.285,-1.4019 0.6042,-0.60417 0.2888,0.72187 0.2533,1.58438 -0.079,1.91667 -0.3323,0.33229 -0.5687,-0.25834 -0.5252,-1.3125 z m 1,-4 c 0.048,-1.16495 0.285,-1.4019 0.6042,-0.60417 0.2888,0.72187 0.2533,1.58438 -0.079,1.91667 -0.3323,0.33229 -0.5687,-0.25834 -0.5252,-1.3125 z m -211.518,-18.96853 c -4.36648,-0.82177 -14.49148,-3.26935 -22.5,-5.43905 -29.81665,-8.07808 -53.9828,-11.66626 -72.06094,-10.6996 -10.19114,0.54493 -23.19401,3.57738 -24.51677,5.71764 -1.25846,2.03623 -2.32472,0.80206 -3.48476,-4.03349 -1.39942,-5.83346 -3.229,-6.74628 -10.4394,-5.20845 l -4.55907,0.97235 0,-2.87877 c 0,-2.82275 -0.10702,-2.87877 -5.5,-2.87877 l -5.5,0 0,-5 0,-5 -3.52032,0 -3.52033,0 2.1239,-4.16318 2.12389,-4.16317 -3.85357,-3.29928 c -2.5465,-2.18022 -3.30153,-3.31201 -2.22601,-3.33682 0.89515,-0.0206 2.22472,0.68199 2.95459,1.56144 5.04862,6.08321 23.28698,17.21811 34.41785,21.01281 6.99878,2.38601 10.19017,2.81582 25.5,3.43435 9.625,0.38885 21.775,1.51618 27,2.50518 13.1841,2.49552 33.70144,2.57645 40.62371,0.16025 l 5.1237,-1.78842 12.2019,5.01569 c 27.42282,11.27236 41.26791,13.9738 55.04483,10.7403 3.57177,-0.83832 6.63518,-1.38316 6.80757,-1.21077 0.74741,0.7474 -6.2019,4.78387 -11.51303,6.68729 -7.74833,2.77686 -29.21991,3.45825 -40.72774,1.29247 z m 73.9391,-9.55943 c -5.32838,-1.21272 -9.50004,-2.94402 -9.50004,-3.94264 0,-1.46853 3.48609,-1.95385 6.93324,-0.96522 11.9778,3.43518 34.1557,1.71573 59.1922,-4.58915 l 14.3746,-3.61992 9.5,2.17601 c 5.225,1.1968 12.2,2.50183 15.5,2.90005 l 6,0.72405 -5,1.83123 c -4.2069,1.54075 -9.7588,1.95667 -35,2.62205 -19.5804,0.51615 -33.1259,1.34244 -39,2.37902 -9.8543,1.73895 -16.8417,1.88614 -23,0.48452 z m 121.5932,-10.6238 -3.4068,-0.41502 5.0928,-2.90863 c 5.4025,-3.08548 11.3569,-8.67023 13.9817,-13.11366 1.0576,-1.79044 3.6134,-3.4571 7.663,-4.99704 3.3418,-1.27083 6.4136,-2.46509 6.8261,-2.65391 0.4125,-0.18883 0.75,1.05383 0.75,2.76146 0,2.34133 -0.6148,3.38486 -2.5,4.24384 -3.089,1.40742 -3.0878,1.4888 0.089,6.16369 1.4239,2.09544 2.3941,4.00471 2.156,4.24281 -0.2381,0.2381 -2.3597,-0.2469 -4.7147,-1.07777 -8.2203,-2.90029 -11.2483,-1.50058 -6.8596,3.17093 1.1938,1.27078 1.9164,2.56474 1.6056,2.87547 -0.6994,0.69939 -12.5443,2.45391 -15.2762,2.26278 -1.1,-0.077 -3.5331,-0.32669 -5.4068,-0.55495 z M 460.49666,399.6955 c 0.50971,-1.34064 2.04603,-4.64633 3.41404,-7.34597 l 2.48729,-4.90844 -6.75046,-6.90403 c -17.18824,-17.57926 -38.57166,-53.77644 -56.2373,-95.19677 -3.93957,-9.23705 -4.61472,-10.23659 -6.58252,-9.74533 -3.44779,0.86074 -7.27754,-1.49538 -9.60476,-5.90899 -2.88086,-5.46361 -3.76782,-27.06761 -1.34894,-32.85679 0.84939,-2.03288 1.97473,-3.69615 2.50076,-3.69615 0.52603,0 2.91149,1.60598 5.30103,3.56883 10.72044,8.80619 14.16189,15.13906 14.27202,26.26299 0.0673,6.79194 -0.12897,7.50554 -2.66467,9.69107 l -2.73725,2.35925 5.01521,11.71291 c 12.23769,28.58086 28.95877,57.61332 44.00498,76.40495 10.61818,13.26134 18.38459,20.27791 27.42658,24.7786 l 7.97226,3.96822 -5.97226,3.0118 c -5.31821,2.68196 -18.25897,7.24138 -20.55284,7.24138 -0.47846,0 -0.45288,-1.09689 0.0568,-2.43753 z m 80.46089,-29.81247 -2.9371,-3.25 3.25,2.93709 c 3.0294,2.73778 3.7096,3.56291 2.9371,3.56291 -0.1721,0 -1.6346,-1.4625 -3.25,-3.25 z"
         id="path3122"
         inkscape:connector-curvature="0" />
      <path
         style="fill:#68652a"
         d="m 456.57273,402.85803 c 0.0288,-0.67375 1.34343,-4.375 2.92144,-8.225 l 2.86911,-7 -4.28804,-4 c -9.74393,-9.08942 -25.506,-32.19366 -39.2274,-57.5 -8.97052,-16.54429 -23.63145,-48.69907 -22.81018,-50.02792 1.52897,-2.47391 3.32977,-0.21108 7.38353,9.27792 17.72188,41.48321 39.0507,77.58763 56.19166,95.11859 l 6.71579,6.86859 -3.38626,7.06594 c -1.86244,3.88626 -3.1932,7.25899 -2.95724,7.49494 0.77958,0.77959 14.85665,-3.9315 20.97229,-7.01867 l 6.0075,-3.03257 -7.97226,-3.96822 c -9.04199,-4.50069 -16.8084,-11.51726 -27.42658,-24.7786 -15.06024,-18.80915 -31.76703,-47.82349 -44.03438,-76.4736 -4.71224,-11.00533 -4.92831,-11.8666 -3.27952,-13.07222 0.97079,-0.70986 1.83918,-1.21495 1.92974,-1.12242 0.0906,0.0925 1.56479,3.69518 3.27605,8.00588 12.43095,31.31388 30.17849,62.65461 47.65922,84.16236 9.94287,12.23339 12.70792,14.70201 22.48099,20.07088 4.63222,2.54472 8.75048,4.93306 9.15169,5.30741 1.30574,1.21835 -9.53152,7.46378 -17.72947,10.21737 -10.33743,3.47221 -14.51616,4.2327 -14.44768,2.62934 z"
         id="path3120"
         inkscape:connector-curvature="0" />
      <path
         style="fill:#ad2323"
         d="m 551.52045,465.06744 c -5.4453,-2.93126 -18.0315,-6.72553 -24.87984,-7.50032 -5.87227,-0.66437 -6.36587,-0.9308 -9.10791,-4.91622 -6.76955,-9.83922 -21.67232,-20.8955 -40.51229,-30.05588 -17.48308,-8.50062 -31.76571,-12.25747 -41.38588,-10.88597 -5.35078,0.76282 -13.81844,5.00299 -15.21967,7.62121 -0.63816,1.1924 -2.11182,1.80277 -4.35258,1.80277 l -3.38776,0 2.02696,-7.25 c 5.38606,-19.26482 18.1518,-31.79435 34.06596,-33.43566 5.02642,-0.51839 5.4323,-0.37513 9.41108,3.32195 l 4.15812,3.86371 -3.06572,7.75906 c -1.68615,4.26748 -2.84419,7.9806 -2.57342,8.25137 0.83835,0.83835 15.43017,-3.26594 21.01946,-5.91221 2.9169,-1.38101 6.7987,-3.61524 8.62623,-4.96494 l 3.32278,-2.454 -6.82278,-3.72325 c -10.63647,-5.80442 -14.32278,-8.36289 -14.32278,-9.94066 0,-2.23023 14.61486,-14.20044 21.44045,-17.56067 16.97374,-8.35614 33.94504,-5.11263 49.29489,9.42111 16.802,15.90874 23.8563,29.73742 26.2455,51.44972 1.3491,12.26112 -0.392,25.11899 -5.0302,37.14618 -3.7733,9.78465 -4.4492,10.38589 -8.9506,7.9627 z"
         id="path3118"
         inkscape:connector-curvature="0" />
    </g>
  </g>
</svg>
